<svg xmlns="http://www.w3.org/2000/svg" xmlns:xlink="http://www.w3.org/1999/xlink" xmlns:lucid="lucid" width="1055.34" height="696.83"><g transform="translate(514.8395061728396 -36.166666666666686)" lucid:page-tab-id="0_0"><path d="M-340 126a6 6 0 0 1 6-6h848a6 6 0 0 1 6 6v408a6 6 0 0 1-6 6h-848a6 6 0 0 1-6-6z" stroke="#3a414a" fill="#fff"/><path d="M-220.34 163.17c-1.14.1-2.05.34-2.96.8l-39.44 19.43c-2.16 1.02-3.64 2.84-4.1 5.23l-9.77 43.76c-.47 2.04-.13 4.08 1 5.9.13.23.24.34.47.57l27.28 35c1.48 1.94 3.52 2.97 5.9 2.97h43.9c2.38 0 4.42-1.03 5.9-2.96l27.28-35c1.48-1.94 2.05-4.22 1.48-6.6l-9.77-43.65c-.45-2.4-1.93-4.2-4.1-5.23l-39.43-19.44c-1.25-.57-2.4-.9-3.64-.8z" stroke="#000" stroke-opacity="0" stroke-width="0" fill="#326ce5"/><path d="M-220.36 160c-1.2.12-2.16.36-3.12.84l-41.64 20.52c-2.28 1.08-3.84 3-4.32 5.52l-10.32 46.2c-.48 2.16-.12 4.32 1.08 6.24.12.24.24.36.48.6l28.8 36.96c1.56 2.04 3.72 3.12 6.24 3.12h46.32c2.52 0 4.68-1.08 6.24-3.12l28.8-36.96c1.56-2.04 2.16-4.44 1.56-6.84l-10.32-46.2c-.48-2.52-2.04-4.44-4.32-5.52l-41.64-20.52c-1.32-.6-2.52-.96-3.84-.84zm0 3.12c1.32 0 2.4.24 3.6.84l39.6 19.44c2.04 1.08 3.48 2.88 4.08 5.28l9.72 43.68c.48 2.4 0 4.56-1.44 6.48l-27.36 35.04c-1.44 1.92-3.48 3-5.88 3h-43.92c-2.4 0-4.44-1.08-5.88-3l-27.36-35.04c-.12-.12-.24-.36-.36-.6-1.2-1.8-1.56-3.72-1.08-5.88l9.72-43.68c.6-2.4 1.92-4.2 4.08-5.28l39.6-19.44c.96-.48 1.8-.72 2.88-.84z" stroke="#000" stroke-opacity="0" stroke-width="0" fill="#fff"/><path d="M-244.1 202.6l24.1-7.2 24.1 7.2-24.1 7.2zM-244.1 205.36v26.4l22.45 12.84.12-32.33zM-195.9 205.36v26.4l-22.45 12.84-.12-32.33z" stroke="#000" stroke-opacity="0" fill="#fff"/><use xlink:href="#a" transform="matrix(1,0,0,1,-310,289) translate(0.6481481481481524 17.77777777777778)"/><use xlink:href="#b" transform="matrix(1,0,0,1,-310,289) translate(70.83333333333333 17.77777777777778)"/><use xlink:href="#c" transform="matrix(1,0,0,1,-310,289) translate(91.82098765432099 17.77777777777778)"/><path d="M-420 62.67a6 6 0 0 1 6-6H74a6 6 0 0 1 6 6V114a6 6 0 0 1-6 6h-488a6 6 0 0 1-6-6z" stroke="#000" stroke-opacity="0" fill="#fff" fill-opacity="0"/><use xlink:href="#d" transform="matrix(1,0,0,1,-415,61.666666666666686) translate(120.46296296296298 31.27777777777778)"/><use xlink:href="#e" transform="matrix(1,0,0,1,-415,61.666666666666686) translate(240.15432098765433 31.27777777777778)"/><use xlink:href="#f" transform="matrix(1,0,0,1,-415,61.666666666666686) translate(316.51234567901236 31.27777777777778)"/><path d="M-220 280.5v263.14" stroke="#3a414a" fill="none"/><path d="M-219.5 280.5h-1v-.5h1z" stroke="#3a414a" stroke-width=".05" fill="#3a414a"/><path d="M-220 558.4l-4.63-14.26h9.26z" stroke="#3a414a" fill="#3a414a"/><use xlink:href="#g" transform="matrix(1,0,0,1,-512.8395061728396,378.66666666666663) translate(0 14.222222222222223)"/><use xlink:href="#h" transform="matrix(1,0,0,1,-512.8395061728396,378.66666666666663) translate(48.296296296296305 14.222222222222223)"/><use xlink:href="#i" transform="matrix(1,0,0,1,-512.8395061728396,378.66666666666663) translate(106.51851851851853 14.222222222222223)"/><use xlink:href="#j" transform="matrix(1,0,0,1,-512.8395061728396,378.66666666666663) translate(205.03703703703707 14.222222222222223)"/><path d="M-220.34 563.17c-1.14.1-2.05.34-2.96.8l-39.44 19.43c-2.16 1.02-3.64 2.84-4.1 5.23l-9.77 43.76c-.47 2.04-.13 4.1 1 5.9.13.23.24.34.47.57l27.28 35c1.48 1.94 3.52 2.97 5.9 2.97h43.9c2.38 0 4.42-1.03 5.9-2.96l27.28-35c1.48-1.94 2.05-4.2 1.48-6.6l-9.77-43.65c-.45-2.4-1.93-4.2-4.1-5.23l-39.43-19.44c-1.26-.57-2.4-.9-3.64-.8z" stroke="#000" stroke-opacity="0" stroke-width="3.83" fill="#326ce5"/><path d="M-220.36 560c-1.2.12-2.16.36-3.12.84l-41.64 20.52c-2.28 1.08-3.84 3-4.32 5.52l-10.32 46.2c-.48 2.16-.12 4.32 1.08 6.24.12.24.24.36.48.6l28.8 36.96c1.56 2.04 3.72 3.12 6.24 3.12h46.32c2.52 0 4.68-1.08 6.24-3.12l28.8-36.96c1.56-2.04 2.16-4.44 1.56-6.84l-10.32-46.2c-.48-2.52-2.04-4.44-4.32-5.52l-41.64-20.52c-1.32-.6-2.52-.96-3.84-.84zm0 3.24c1.32-.12 2.4.12 3.6.72l39.6 19.44c2.04 1.08 3.48 2.88 4.08 5.28l9.72 43.68c.48 2.4 0 4.56-1.44 6.48l-27.36 35.04c-1.44 1.92-3.48 3-5.88 3h-43.92c-2.4 0-4.44-1.08-5.88-3l-27.36-35.04c-.12-.12-.24-.36-.36-.6-1.2-1.8-1.56-3.72-1.08-5.88l9.72-43.68c.6-2.4 1.92-4.2 4.08-5.28l39.6-19.44c.96-.48 1.8-.72 2.88-.84z" stroke="#000" stroke-opacity="0" stroke-width="3.83" fill="#fff"/><path d="M-250.8 608.13c0 4.25 13.8 7.7 30.8 7.7s30.8-3.45 30.8-7.7V629c0 4.24-13.8 7.7-30.8 7.7s-30.8-3.46-30.8-7.72z" stroke="#000" stroke-opacity="0" stroke-width="3.77" fill="#fff"/><path d="M-250.8 608.13c0-4.26 13.8-7.7 30.8-7.7s30.8 3.44 30.8 7.7c0 4.25-13.8 7.7-30.8 7.7s-30.8-3.45-30.8-7.7z" stroke="#000" stroke-opacity="0" stroke-width="3.77" fill="#fff"/><path d="M-220 599.5c-8.56 0-16.3.88-22 2.3-2.84.72-5.12 1.56-6.83 2.55-1.65 1-2.85 2.2-2.85 3.77V629c0 1.56 1.2 2.78 2.85 3.77 1.7 1 4 1.83 6.84 2.55 5.7 1.4 13.44 2.3 22 2.3 8.54 0 16.27-.9 21.97-2.3 2.85-.72 5.14-1.56 6.85-2.55 1.64-1 2.85-2.2 2.85-3.77v-20.88c0-1.57-1.2-2.78-2.85-3.77-1.7-1-4-1.83-6.84-2.56-5.7-1.42-13.44-2.3-22-2.3zm0 1.84c8.42 0 16.08.83 21.53 2.2 2.8.7 4.94 1.53 6.4 2.37 1.46.85 1.96 1.68 1.96 2.22 0 .57-.5 1.37-1.97 2.2-1.46.88-3.6 1.68-6.4 2.37-5.45 1.36-13.1 2.24-21.54 2.24-8.43 0-16.1-.88-21.54-2.25-2.8-.7-4.95-1.5-6.4-2.37-1.46-.84-1.97-1.64-1.97-2.2 0-.55.5-1.38 1.96-2.22 1.45-.83 3.6-1.67 6.4-2.36 5.44-1.37 13.1-2.2 21.53-2.2zm-29.9 9.14c.25.53.5 1 1.07 1.45 1.58 1.18 4 1.83 6.84 2.55 5.7 1.4 13.44 2.25 22 2.25 8.54 0 16.27-.84 21.97-2.25 2.85-.72 5.14-1.56 6.85-2.55.63-.46.88-1.03 1.07-1.45V629c0 .53-.5 1.37-1.97 2.2-1.46.84-3.6 1.68-6.4 2.37-5.45 1.37-13.1 2.2-21.54 2.2-8.43 0-16.1-.83-21.54-2.2-2.8-.7-4.95-1.53-6.4-2.36-1.46-.83-1.97-1.67-1.97-2.2z" stroke="#000" stroke-opacity="0" stroke-width="3.77" fill="#326ce5"/><use xlink:href="#k" transform="matrix(1,0,0,1,-310,689) translate(-60.370370370370324 17.77777777777778)"/><path d="M63.33 226.33a6 6 0 0 1 6-6H480a6 6 0 0 1 6 6v51.34a6 6 0 0 1-6 6H69.33a6 6 0 0 1-6-6z" stroke="#000" stroke-opacity="0" fill="#fff" fill-opacity="0"/><path d="M399.66 166.83c-1.14.12-2.05.34-2.96.8l-39.44 19.44c-2.16 1.02-3.64 2.84-4.1 5.23l-9.77 43.76c-.47 2.04-.13 4.1 1 5.9.13.24.24.35.47.58l27.28 35c1.48 1.94 3.52 2.96 5.9 2.96h43.9c2.38 0 4.42-1.02 5.9-2.95l27.28-35c1.48-1.94 2.05-4.22 1.48-6.6l-9.77-43.65c-.45-2.4-1.93-4.2-4.1-5.23l-39.43-19.44c-1.25-.57-2.4-.9-3.64-.8z" stroke="#000" stroke-opacity="0" stroke-width="3.83" fill="#326ce5"/><path d="M399.64 163.67c-1.2.12-2.16.36-3.12.84l-41.64 20.53c-2.28 1.08-3.84 3-4.32 5.52l-10.32 46.2c-.48 2.16-.12 4.32 1.08 6.24.12.23.24.35.48.6l28.8 36.95c1.56 2.04 3.72 3.12 6.24 3.12h46.32c2.52 0 4.68-1.08 6.24-3.12l28.8-36.96c1.56-2.05 2.16-4.45 1.56-6.85l-10.32-46.2c-.48-2.52-2.04-4.44-4.32-5.52l-41.64-20.52c-1.32-.6-2.52-.95-3.84-.83zm0 3.24c1.32-.1 2.4.13 3.6.73l39.6 19.44c2.04 1.08 3.48 2.88 4.08 5.28l9.72 43.68c.48 2.4 0 4.56-1.44 6.48l-27.36 35.05c-1.44 1.92-3.48 3-5.88 3h-43.92c-2.4 0-4.44-1.08-5.88-3L344.8 242.5c-.12-.1-.24-.35-.36-.6-1.2-1.8-1.56-3.7-1.08-5.87l9.72-43.68c.6-2.4 1.92-4.2 4.08-5.28l39.6-19.44c.96-.48 1.8-.72 2.88-.84z" stroke="#000" stroke-opacity="0" stroke-width="3.83" fill="#fff"/><path d="M376.64 270.9l-3.36-4.67-1.2 1.03v3.63h-1.66v-14.03h1.65v8.77l4.36-4.97h1.93l-4.03 4.4 4.24 5.82zM381.42 260.67v6.5c0 .65.06 1.18.2 1.55.12.37.33.64.6.8.28.17.7.25 1.24.25.8 0 1.43-.28 1.88-.84.46-.56.7-1.33.7-2.33v-5.93h1.64v8.04c0 1.2.02 1.93.06 2.2h-1.56l-.02-.26-.03-.47c0-.2 0-.52-.03-1.02h-.02c-.38.7-.82 1.2-1.33 1.5-.5.3-1.1.43-1.85.43-1.08 0-1.88-.28-2.4-.83-.5-.56-.74-1.48-.74-2.77v-6.8zM398.64 265.74c0 3.56-1.2 5.34-3.64 5.34-.75 0-1.38-.14-1.9-.4-.48-.3-.88-.75-1.2-1.38 0 .2-.03.5-.05.9l-.05.7h-1.6c.04-.35.06-1.06.06-2.12v-11.9h1.65v3.98c0 .4 0 .9-.03 1.45h.04c.3-.64.72-1.1 1.2-1.4.52-.28 1.15-.42 1.9-.42 1.25 0 2.17.44 2.76 1.3.6.87.88 2.2.88 3.96zm-1.73.05c0-1.44-.17-2.47-.53-3.08-.38-.62-.97-.94-1.8-.94-.92 0-1.6.33-2.03 1-.42.65-.63 1.7-.63 3.1 0 1.35.22 2.34.63 2.98.42.64 1.1.97 2.03.97.82 0 1.43-.33 1.8-.95.37-.64.55-1.67.55-3.1zM401.98 266.14c0 1.17.23 2.08.7 2.72.47.63 1.16.95 2.06.95.72 0 1.3-.14 1.72-.43.43-.3.72-.67.87-1.13l1.46.43c-.6 1.6-1.95 2.4-4.06 2.4-1.47 0-2.6-.43-3.35-1.33-.78-.9-1.16-2.25-1.16-4.02 0-1.7.38-3 1.15-3.9.75-.9 1.86-1.34 3.28-1.34 2.92 0 4.37 1.8 4.37 5.43v.24zm5.36-1.3c-.1-1.08-.35-1.87-.8-2.35-.43-.5-1.06-.76-1.9-.76-.8 0-1.42.28-1.9.83-.46.55-.7 1.3-.75 2.27zM411.15 270.9v-14.03h1.65v14.02zM416.6 266.14c0 1.17.23 2.08.7 2.72.48.63 1.16.95 2.07.95.7 0 1.3-.14 1.72-.43.42-.3.7-.67.86-1.13l1.45.43c-.58 1.6-1.92 2.4-4.03 2.4-1.47 0-2.6-.43-3.36-1.33-.75-.9-1.13-2.25-1.13-4.02 0-1.7.38-3 1.14-3.9.78-.9 1.88-1.34 3.3-1.34 2.93 0 4.38 1.8 4.38 5.43v.24zm5.37-1.3c-.1-1.08-.35-1.87-.8-2.35-.43-.5-1.07-.76-1.9-.76-.8 0-1.42.28-1.9.83-.47.55-.7 1.3-.75 2.27zM429.6 270.82c-.54.15-1.1.23-1.67.23-1.32 0-1.98-.78-1.98-2.32v-6.83h-1.14v-1.22h1.2l.5-2.3h1.1v2.3h1.84v1.22h-1.84v6.46c0 .5.08.84.23 1.04.16.2.43.3.8.3.24 0 .55-.05.97-.14z" stroke="#000" stroke-opacity="0" fill="#fff"/><path d="M399.87 183.7c-.94 0-26.55 12.93-26.88 13.6-.8 1.62-6.68 29.4-6.34 30 .2.33 4.4 5.86 9.33 12.2l9 11.58h29.54l9.4-12.13 9.4-12.06-3.26-14.9c-1.8-8.16-3.47-15.03-3.6-15.17-.47-.47-26.08-13.14-26.6-13.14zm1.33 6.46l6 1.82-6 1.82-6.07-1.82zm-6.07 2.56l5.67 1.7v8.14l-5.67-3.23zm12.07 0v6.6l-5.6 3.24v-8.15zm-14.6 11.05l6.07 1.82-6.07 1.75-6-1.76zm14.74 0l6 1.82-6 1.75-6.07-1.76zm-20.74 2.5l5.6 1.75v8.1l-5.6-3.25zm12.07 0v6.6L393 216.1v-8.08zm2.6 0l5.67 1.75-.07 8.1-5.6-3.25zm12.07 0v6.6l-5.6 3.24-.07-8.08zm-22.94 10.38c1.8.06.4 1.95 2.47 2.96 2.2 1.02 2.6-1.6 4 .4 1.33 2.04-1.2 1.56-1.07 4.06.2 2.43 2.73 1.48 1.67 3.77-1.07 2.23-1.87-.33-3.87 1.08-2 1.43 0 3.18-2.4 3.38-2.4.2-.67-1.9-2.87-2.97-2.13-1.06-2.6 1.63-4-.4-1.33-2.08 1.27-1.54 1.07-4.03-.2-2.43-2.67-1.55-1.67-3.78 1.06-2.23 1.93.33 3.93-1.1 1.94-1.4-.06-3.15 2.34-3.35h.4zm15.54 2.5c3.2.06.13 3.16 3.06 4.57 2.94 1.35 3.07-3.17 5.27-.74 2.2 2.43-2.13 2.36-.93 5.46 1.13 3.1 4.33.07 4.2 3.37-.07 3.3-3.07.08-4.4 3.1-1.33 3.04 3 3.24.67 5.53-2.33 2.23-2.26-2.22-5.26-1-3 1.14-.07 4.44-3.27 4.37-3.2-.13-.07-3.23-3-4.58-2.94-1.35-3.14 3.1-5.34.68-2.2-2.36 2.14-2.3 1-5.4-1.2-3.1-4.33-.06-4.26-3.37.06-3.37 3.06-.13 4.4-3.16 1.33-3.03-3-3.17-.67-5.46 2.33-2.28 2.27 2.16 5.27 1.02 3-1.2.06-4.45 3.27-4.38zm-15.4 1.74c-1.94 0-3.54 1.6-3.54 3.63 0 2.02 1.6 3.64 3.53 3.64 2 0 3.54-1.62 3.54-3.64s-1.54-3.64-3.54-3.64zm15.06 3.3c-3.87 0-7.07 3.23-7.07 7.27 0 3.98 3.2 7.28 7.07 7.28 3.94 0 7.07-3.3 7.07-7.28 0-4.04-3.13-7.28-7.07-7.28z" stroke="#000" stroke-opacity="0" stroke-width="0" fill="#fff"/><use xlink:href="#l" transform="matrix(1,0,0,1,310,292.66666666666686) translate(52.376543209876544 17.77777777777778)"/><path d="M59.66 323.17c-1.14.1-2.05.34-2.96.8L17.26 343.4c-2.16 1.02-3.64 2.84-4.1 5.23L3.4 392.4c-.47 2.04-.13 4.1 1 5.9.13.23.24.34.47.57l27.28 35c1.48 1.94 3.52 2.97 5.9 2.97h43.9c2.38 0 4.42-1.03 5.9-2.96l27.28-35c1.48-1.94 2.05-4.2 1.48-6.6l-9.77-43.65c-.45-2.4-1.93-4.2-4.1-5.23L63.3 323.96c-1.25-.56-2.4-.9-3.64-.8z" stroke="#000" stroke-opacity="0" stroke-width="3.83" fill="#326ce5"/><path d="M59.64 320c-1.2.12-2.16.36-3.12.84l-41.64 20.52c-2.28 1.08-3.84 3-4.32 5.52L.24 393.08c-.48 2.16-.12 4.32 1.08 6.24.12.24.24.36.48.6l28.8 36.96c1.56 2.04 3.72 3.12 6.24 3.12h46.32c2.52 0 4.68-1.08 6.24-3.12l28.8-36.96c1.56-2.04 2.16-4.44 1.56-6.84l-10.32-46.2c-.48-2.52-2.04-4.44-4.32-5.52l-41.64-20.52c-1.32-.6-2.52-.96-3.84-.84zm0 3.24c1.32-.12 2.4.12 3.6.72l39.6 19.44c2.04 1.08 3.48 2.88 4.08 5.28l9.72 43.68c.48 2.4 0 4.56-1.44 6.48l-27.36 35.04c-1.44 1.92-3.48 3-5.88 3H38.04c-2.4 0-4.44-1.08-5.88-3L4.8 398.84c-.12-.12-.24-.36-.36-.6-1.2-1.8-1.56-3.72-1.08-5.88l9.72-43.68c.6-2.4 1.92-4.2 4.08-5.28l39.6-19.44c.96-.48 1.8-.72 2.88-.84z" stroke="#000" stroke-opacity="0" stroke-width="3.83" fill="#fff"/><path d="M39.6 425.58c-.3.66-.7 1.12-1.2 1.4-.52.3-1.14.44-1.88.44-1.25 0-2.18-.45-2.77-1.3-.6-.88-.88-2.2-.88-3.96 0-3.57 1.22-5.35 3.65-5.35.75 0 1.37.16 1.88.44.5.28.9.74 1.2 1.35h.02v-5.4h1.63v11.9c0 1.08.03 1.8.06 2.13h-1.57l-.06-.7-.03-.95zm-5-3.48c0 1.44.18 2.46.55 3.07.37.63.96.94 1.8.94.92 0 1.6-.33 2.02-1 .43-.67.64-1.7.64-3.1 0-1.36-.2-2.36-.63-2.98-.42-.63-1.1-.96-2.02-.96-.82 0-1.42.33-1.8.97-.37.63-.55 1.65-.55 3.07zM45.06 422.48c0 1.16.23 2.07.7 2.7.48.65 1.16.96 2.07.96.7 0 1.3-.14 1.72-.44.43-.3.72-.67.87-1.12l1.45.42c-.6 1.6-1.94 2.42-4.04 2.42-1.47 0-2.6-.45-3.36-1.35-.76-.9-1.14-2.25-1.14-4.02 0-1.68.38-3 1.14-3.9.77-.9 1.87-1.33 3.3-1.33 2.9 0 4.37 1.8 4.37 5.42v.24zm5.37-1.3c-.1-1.1-.35-1.87-.8-2.36-.44-.5-1.07-.74-1.9-.74-.8 0-1.43.27-1.9.82-.47.56-.7 1.3-.75 2.27zM62.63 422.07c0 3.56-1.2 5.35-3.64 5.35-1.54 0-2.57-.6-3.1-1.8h-.04c.03.07.04.6.04 1.63v4h-1.65v-12.17c0-1.05-.02-1.74-.06-2.1h1.6v.3c.03.15.04.38.05.7l.03.66h.03c.3-.62.7-1.08 1.18-1.37.48-.3 1.1-.45 1.9-.45 1.23 0 2.14.42 2.74 1.27.6.82.9 2.15.9 3.97zm-1.73.03c0-1.42-.18-2.44-.55-3.05-.38-.62-.98-.92-1.8-.92-.64 0-1.15.15-1.52.44-.37.27-.65.72-.85 1.32-.2.58-.28 1.38-.28 2.33 0 1.35.2 2.33.62 2.97.4.63 1.1.95 2.03.95.82 0 1.4-.3 1.78-.92.38-.62.57-1.66.57-3.13zM64.7 427.23V413.2h1.64v14.03zM77.26 422.1c0 1.8-.38 3.13-1.14 4-.77.88-1.88 1.32-3.34 1.32-1.44 0-2.53-.46-3.28-1.36-.73-.92-1.1-2.24-1.1-3.96 0-3.53 1.48-5.3 4.45-5.3 1.5 0 2.62.45 3.34 1.3.7.87 1.06 2.2 1.06 4zm-1.73 0c0-1.4-.2-2.43-.62-3.07-.4-.64-1.07-.95-2.03-.95-.96 0-1.66.3-2.1.97-.42.65-.64 1.67-.64 3.05 0 1.35.2 2.37.63 3.05.43.68 1.1 1 2 1 1 0 1.7-.3 2.13-.97.4-.66.63-1.7.63-3.08zM79.8 431.24c-.44 0-.82-.03-1.13-.1v-1.28c.23.04.5.06.77.06 1.03 0 1.84-.8 2.44-2.34l.16-.4L78.1 417h1.76l2.1 5.65c.02.1.06.2.1.32l.42 1.23.37 1.17.64-1.86 2.17-6.5h1.74l-3.8 10.22c-.42 1.1-.8 1.9-1.15 2.44-.36.52-.75.92-1.18 1.18-.43.27-.92.4-1.46.4z" stroke="#000" stroke-opacity="0" fill="#fff"/><path d="M57.07 406.08c-16.25.8-30.07-12.07-30.9-28.78-.9-16.76 11.52-31.1 27.77-32.07 16.25-.97 30.2 11.7 31.25 28.48l-11.7.8c-.66-10.12-9.05-17.8-18.85-17.2-9.8.55-17.3 9.2-16.78 19.33.47 10.12 8.86 17.87 18.67 17.44z" stroke="#000" stroke-opacity="0" stroke-width="3.77" fill="#fff"/><path d="M63.14 373.72l9.3 23.46 21.45-23.46z" stroke="#000" stroke-opacity="0" stroke-width="3.77" fill="#fff"/><use xlink:href="#m" transform="matrix(1,0,0,1,-30,449) translate(37.59259259259259 17.77777777777778)"/><use xlink:href="#n" transform="matrix(1,0,0,1,-30,449) translate(-164.01234567901227 44.44444444444444)"/><path d="M55.02 219.58l1 .24.93.4.87.52.78.66.66.78.53.87.38.94.24.98.08 1v77.66h-1v-77.62l-.07-.88-.2-.84-.33-.8-.45-.73-.56-.66-.67-.55-.73-.45-.8-.33-.84-.2-.88-.07h-216.64v-1H54.02z" stroke="#3a414a" stroke-width=".05" fill="#3a414a"/><path d="M-162.65 220.5h-.4l-.22-1h.62z" fill="#3a414a"/><path d="M-162.62 220.53h-.45l-.24-1.06h.68zm-.62-1l.2.94h.37v-.94z" stroke="#3a414a" stroke-width=".05" fill="#3a414a"/><path d="M60 318.4l-4.63-14.26h9.27z" fill="#3a414a"/><path d="M60 320.03l-5.32-16.4h10.64zm-3.95-15.4L60 316.8l3.95-12.16z" stroke="#3a414a" stroke-width=".05" fill="#3a414a"/><use xlink:href="#o" transform="matrix(1,0,0,1,-82.07407407407408,194.66666666666666) translate(0 14.222222222222223)"/><use xlink:href="#p" transform="matrix(1,0,0,1,-82.07407407407408,194.66666666666666) translate(60.14814814814816 14.222222222222223)"/><use xlink:href="#q" transform="matrix(1,0,0,1,-82.07407407407408,194.66666666666666) translate(158.66666666666669 14.222222222222223)"/><path d="M397.83 614.02l-.07 1-.24 1-.4.93-.53.87-.67.78-.78.66-.86.53-.96.38-1 .24-1 .08h-5v-1h4.97l.9-.07.83-.2.8-.33.74-.45.65-.56.56-.67.45-.73.33-.8.2-.84.07-.88V609h1zm-16.46 6.48h-9.97v-1h9.97zm-14.95 0h-9.96v-1h9.96zm-14.95 0h-9.96v-1h9.97zm-14.94 0h-9.97v-1h9.97zm-14.95 0h-9.97v-1h9.98zm-14.95 0h-9.96v-1h9.96zm-14.95 0h-9.96v-1h9.96zm-14.94 0h-9.97v-1h9.97zm-14.95 0h-9.98v-1h9.97zm-14.96 0h-9.97v-1h9.97zm-14.95 0h-9.97v-1h9.96zm-14.96 0h-9.96v-1h9.97zm-14.94 0h-9.97v-1H202zm-14.95 0h-9.97v-1h9.97zm-14.95 0h-9.96v-1h9.96zm-14.94 0h-9.97v-1h9.96zm-14.95 0h-9.96v-1h9.97zm-14.94 0h-9.97v-1h9.96zm-14.95 0h-9.95v-1h9.96zm-14.94 0H87.4v-1h9.96zm-14.94 0h-9.97v-1h9.97zm-14.95 0H57.5v-1h9.97zm-14.95 0h-9.96v-1h9.96zm-14.95 0h-9.96v-1h9.98zm-14.94 0h-9.97v-1h9.97zm-14.95 0h-9.96v-1h9.96zm-14.95 0h-9.96v-1h9.96zm-14.95 0h-9.96v-1h9.96zm-14.94 0h-9.97v-1h9.97zm-14.95 0h-9.98v-1h9.97zm-14.96 0h-9.96v-1h9.96zm-14.94 0h-9.97v-1H-82zm-14.95 0h-9.97v-1h9.97zm-14.95 0h-9.96v-1h9.96zm-14.95 0h-9.96v-1h9.95zm-14.94 0h-4.98v-1h5zM397.84 604h-1v-10h1zm0-15h-1v-9.98h1zm0-14.98h-1v-10h1zm0-15h-1v-10h1zm0-15h-1v-9.98h1zm0-14.98h-1v-10h1zm0-15h-1v-9.98h1zm0-14.98h-1v-10h1zm0-15h-1v-10h1zm0-15h-1v-9.98h1zm0-14.98h-1v-10h1zm0-15h-1v-10h1zm0-14.98h-1v-10h1zm0-15h-1v-10h1zm0-15h-1v-9.98h1zm0-14.98h-1v-10h1zm0-15h-1v-10h1zm0-15h-1v-9.98h1zm0-14.98h-1v-10h1zm0-15h-1v-10h1zm0-14.98h-1v-10h1zm0-15h-1v-5h1z" stroke="#3a414a" stroke-width=".05" fill="#3a414a"/><path d="M397.83 284.18h-1v-.5h1z" fill="#3a414a"/><path d="M397.86 284.2h-1.05v-.56h1.06zm-1-.5v.45h.95v-.46z" stroke="#3a414a" stroke-width=".05" fill="#3a414a"/><path d="M-147.28 624.63l-14.26-4.63 14.26-4.63z" fill="#3a414a"/><path d="M-146.78 625.32l-16.38-5.32 16.38-5.32zm-13.15-5.32l12.15 3.95v-7.9zM230.5 374.02l-.08 1-.24 1-.4.93-.52.87-.66.78-.78.66-.87.53-.94.38-.98.24-1 .08h-90.8v-1h90.76l.88-.07.84-.2.8-.33.73-.45.66-.56.55-.67.45-.73.33-.8.2-.84.07-.88v-32.65h1zm112.16-149.85H236.02l-.88.07-.84.2-.8.33-.73.45-.66.56-.55.66-.45.73-.33.8-.2.84-.07.9V320h-1v-90.35l.08-1 .24-1 .4-.94.52-.85.66-.78.78-.66.87-.53.94-.4.98-.22 1-.08h106.68z" stroke="#3a414a" stroke-width=".05" fill="#3a414a"/><path d="M343.05 224.17h-.4v-1h.62z" fill="#3a414a"/><path d="M343.07 224.2h-.45v-1.06h.7zm-.4-1v.94h.36l.2-.95z" stroke="#3a414a" stroke-width=".05" fill="#3a414a"/><path d="M132.72 384.63L118.46 380l14.26-4.63z" fill="#3a414a"/><path d="M133.22 385.32L116.84 380l16.38-5.32zM120.07 380l12.15 3.95v-7.9z" stroke="#3a414a" stroke-width=".05" fill="#3a414a"/><g><use xlink:href="#r" transform="matrix(1,0,0,1,165.48148148148147,320) translate(0 14.222222222222223)"/><use xlink:href="#s" transform="matrix(1,0,0,1,165.48148148148147,320) translate(64.0493827160494 14.222222222222223)"/><use xlink:href="#t" transform="matrix(1,0,0,1,165.48148148148147,320) translate(100.49382716049385 14.222222222222223)"/></g><defs><path fill="#3a414a" d="M212-179c-10-28-35-45-73-45-59 0-87 40-87 99 0 60 29 101 89 101 43 0 62-24 78-52l27 14C228-24 195 4 139 4 59 4 22-46 18-125c-6-104 99-153 187-111 19 9 31 26 39 46" id="u"/><path fill="#3a414a" d="M141-36C126-15 110 5 73 4 37 3 15-17 15-53c-1-64 63-63 125-63 3-35-9-54-41-54-24 1-41 7-42 31l-33-3c5-37 33-52 76-52 45 0 72 20 72 64v82c-1 20 7 32 28 27v20c-31 9-61-2-59-35zM48-53c0 20 12 33 32 33 41-3 63-29 60-74-43 2-92-5-92 41" id="v"/><path fill="#3a414a" d="M210-169c-67 3-38 105-44 169h-31v-121c0-29-5-50-35-48C34-165 62-65 56 0H25l-1-190h30c1 10-1 24 2 32 10-44 99-50 107 0 11-21 27-35 58-36 85-2 47 119 55 194h-31v-121c0-29-5-49-35-48" id="w"/><path fill="#3a414a" d="M100-194c63 0 86 42 84 106H49c0 40 14 67 53 68 26 1 43-12 49-29l28 8c-11 28-37 45-77 45C44 4 14-33 15-96c1-61 26-98 85-98zm52 81c6-60-76-77-97-28-3 7-6 17-6 28h103" id="x"/><path fill="#3a414a" d="M24 0v-261h32V0H24" id="y"/><g id="a"><use transform="matrix(0.06172839506172839,0,0,0.06172839506172839,0,0)" xlink:href="#u"/><use transform="matrix(0.06172839506172839,0,0,0.06172839506172839,15.987654320987653,0)" xlink:href="#v"/><use transform="matrix(0.06172839506172839,0,0,0.06172839506172839,28.333333333333332,0)" xlink:href="#w"/><use transform="matrix(0.06172839506172839,0,0,0.06172839506172839,46.79012345679012,0)" xlink:href="#x"/><use transform="matrix(0.06172839506172839,0,0,0.06172839506172839,59.1358024691358,0)" xlink:href="#y"/></g><path fill="#3a414a" d="M194 0L95-120 63-95V0H30v-248h33v124l119-124h40L117-140 236 0h-42" id="z"/><use transform="matrix(0.06172839506172839,0,0,0.06172839506172839,0,0)" xlink:href="#z" id="b"/><path fill="#3a414a" d="M140-251c81 0 123 46 123 126C263-46 219 4 140 4 59 4 17-45 17-125s42-126 123-126zm0 227c63 0 89-41 89-101s-29-99-89-99c-61 0-89 39-89 99S79-25 140-24" id="A"/><path fill="#3a414a" d="M115-194c55 1 70 41 70 98S169 2 115 4C84 4 66-9 55-30l1 105H24l-1-265h31l2 30c10-21 28-34 59-34zm-8 174c40 0 45-34 45-75s-6-73-45-74c-42 0-51 32-51 76 0 43 10 73 51 73" id="B"/><path fill="#3a414a" d="M114-163C36-179 61-72 57 0H25l-1-190h30c1 12-1 29 2 39 6-27 23-49 58-41v29" id="C"/><path fill="#3a414a" d="M59-47c-2 24 18 29 38 22v24C64 9 27 4 27-40v-127H5v-23h24l9-43h21v43h35v23H59v120" id="D"/><path fill="#3a414a" d="M100-194c62-1 85 37 85 99 1 63-27 99-86 99S16-35 15-95c0-66 28-99 85-99zM99-20c44 1 53-31 53-75 0-43-8-75-51-75s-53 32-53 75 10 74 51 75" id="E"/><g id="c"><use transform="matrix(0.06172839506172839,0,0,0.06172839506172839,0,0)" xlink:href="#A"/><use transform="matrix(0.06172839506172839,0,0,0.06172839506172839,17.28395061728395,0)" xlink:href="#B"/><use transform="matrix(0.06172839506172839,0,0,0.06172839506172839,29.629629629629626,0)" xlink:href="#x"/><use transform="matrix(0.06172839506172839,0,0,0.06172839506172839,41.9753086419753,0)" xlink:href="#C"/><use transform="matrix(0.06172839506172839,0,0,0.06172839506172839,49.32098765432098,0)" xlink:href="#v"/><use transform="matrix(0.06172839506172839,0,0,0.06172839506172839,61.66666666666666,0)" xlink:href="#D"/><use transform="matrix(0.06172839506172839,0,0,0.06172839506172839,67.83950617283949,0)" xlink:href="#E"/><use transform="matrix(0.06172839506172839,0,0,0.06172839506172839,80.18518518518518,0)" xlink:href="#C"/></g><path fill="#3a414a" d="M84 4C-5 8 30-112 23-190h32v120c0 31 7 50 39 49 72-2 45-101 50-169h31l1 190h-30c-1-10 1-25-2-33-11 22-28 36-60 37" id="F"/><path fill="#3a414a" d="M115-194c53 0 69 39 70 98 0 66-23 100-70 100C84 3 66-7 56-30L54 0H23l1-261h32v101c10-23 28-34 59-34zm-8 174c40 0 45-34 45-75 0-40-5-75-45-74-42 0-51 32-51 76 0 43 10 73 51 73" id="G"/><path fill="#3a414a" d="M117-194c89-4 53 116 60 194h-32v-121c0-31-8-49-39-48C34-167 62-67 57 0H25l-1-190h30c1 10-1 24 2 32 11-22 29-35 61-36" id="H"/><path fill="#3a414a" d="M135-143c-3-34-86-38-87 0 15 53 115 12 119 90S17 21 10-45l28-5c4 36 97 45 98 0-10-56-113-15-118-90-4-57 82-63 122-42 12 7 21 19 24 35" id="I"/><g id="d"><use transform="matrix(0.06172839506172839,0,0,0.06172839506172839,0,0)" xlink:href="#z"/><use transform="matrix(0.06172839506172839,0,0,0.06172839506172839,14.814814814814813,0)" xlink:href="#F"/><use transform="matrix(0.06172839506172839,0,0,0.06172839506172839,27.160493827160494,0)" xlink:href="#G"/><use transform="matrix(0.06172839506172839,0,0,0.06172839506172839,39.50617283950617,0)" xlink:href="#x"/><use transform="matrix(0.06172839506172839,0,0,0.06172839506172839,51.85185185185185,0)" xlink:href="#C"/><use transform="matrix(0.06172839506172839,0,0,0.06172839506172839,59.197530864197525,0)" xlink:href="#H"/><use transform="matrix(0.06172839506172839,0,0,0.06172839506172839,71.5432098765432,0)" xlink:href="#x"/><use transform="matrix(0.06172839506172839,0,0,0.06172839506172839,83.88888888888889,0)" xlink:href="#D"/><use transform="matrix(0.06172839506172839,0,0,0.06172839506172839,90.06172839506172,0)" xlink:href="#x"/><use transform="matrix(0.06172839506172839,0,0,0.06172839506172839,102.4074074074074,0)" xlink:href="#I"/></g><g id="e"><use transform="matrix(0.06172839506172839,0,0,0.06172839506172839,0,0)" xlink:href="#u"/><use transform="matrix(0.06172839506172839,0,0,0.06172839506172839,15.987654320987653,0)" xlink:href="#y"/><use transform="matrix(0.06172839506172839,0,0,0.06172839506172839,20.864197530864196,0)" xlink:href="#F"/><use transform="matrix(0.06172839506172839,0,0,0.06172839506172839,33.20987654320987,0)" xlink:href="#I"/><use transform="matrix(0.06172839506172839,0,0,0.06172839506172839,44.32098765432099,0)" xlink:href="#D"/><use transform="matrix(0.06172839506172839,0,0,0.06172839506172839,50.49382716049383,0)" xlink:href="#x"/><use transform="matrix(0.06172839506172839,0,0,0.06172839506172839,62.839506172839506,0)" xlink:href="#C"/></g><path fill="#3a414a" d="M190 0L58-211 59 0H30v-248h39L202-35l-2-213h31V0h-41" id="J"/><path fill="#3a414a" d="M85-194c31 0 48 13 60 33l-1-100h32l1 261h-30c-2-10 0-23-3-31C134-8 116 4 85 4 32 4 16-35 15-94c0-66 23-100 70-100zm9 24c-40 0-46 34-46 75 0 40 6 74 45 74 42 0 51-32 51-76 0-42-9-74-50-73" id="K"/><g id="f"><use transform="matrix(0.06172839506172839,0,0,0.06172839506172839,0,0)" xlink:href="#J"/><use transform="matrix(0.06172839506172839,0,0,0.06172839506172839,15.987654320987653,0)" xlink:href="#E"/><use transform="matrix(0.06172839506172839,0,0,0.06172839506172839,28.333333333333332,0)" xlink:href="#K"/><use transform="matrix(0.06172839506172839,0,0,0.06172839506172839,40.67901234567901,0)" xlink:href="#x"/></g><path fill="#333" d="M24-248c93 1 206-16 204 79-1 75-69 88-152 82V0H24v-248zm52 121c47 0 100 7 100-41 0-47-54-39-100-39v80" id="L"/><path fill="#333" d="M85 4C-2 5 27-109 22-190h50c7 57-23 150 33 157 60-5 35-97 40-157h50l1 190h-47c-2-12 1-28-3-38-12 25-28 42-61 42" id="M"/><path fill="#333" d="M137-138c1-29-70-34-71-4 15 46 118 7 119 86 1 83-164 76-172 9l43-7c4 19 20 25 44 25 33 8 57-30 24-41C81-84 22-81 20-136c-2-80 154-74 161-7" id="N"/><path fill="#333" d="M114-157C55-157 80-60 75 0H25v-261h50l-1 109c12-26 28-41 61-42 86-1 58 113 63 194h-50c-7-57 23-157-34-157" id="O"/><g id="g"><use transform="matrix(0.04938271604938272,0,0,0.04938271604938272,0,0)" xlink:href="#L"/><use transform="matrix(0.04938271604938272,0,0,0.04938271604938272,11.851851851851853,0)" xlink:href="#M"/><use transform="matrix(0.04938271604938272,0,0,0.04938271604938272,22.666666666666668,0)" xlink:href="#N"/><use transform="matrix(0.04938271604938272,0,0,0.04938271604938272,32.543209876543216,0)" xlink:href="#O"/></g><path fill="#333" d="M67-125c0 53 21 87 73 88 37 1 54-22 65-47l45 17C233-25 199 4 140 4 58 4 20-42 15-125 8-235 124-281 211-232c18 10 29 29 36 50l-46 12c-8-25-30-41-62-41-52 0-71 34-72 86" id="P"/><path fill="#333" d="M133-34C117-15 103 5 69 4 32 3 11-16 11-54c-1-60 55-63 116-61 1-26-3-47-28-47-18 1-26 9-28 27l-52-2c7-38 36-58 82-57s74 22 75 68l1 82c-1 14 12 18 25 15v27c-30 8-71 5-69-32zm-48 3c29 0 43-24 42-57-32 0-66-3-65 30 0 17 8 27 23 27" id="Q"/><path fill="#333" d="M220-157c-53 9-28 100-34 157h-49v-107c1-27-5-49-29-50C55-147 81-57 75 0H25l-1-190h47c2 12-1 28 3 38 10-53 101-56 108 0 13-22 24-43 59-42 82 1 51 116 57 194h-49v-107c-1-25-5-48-29-50" id="R"/><path fill="#333" d="M185-48c-13 30-37 53-82 52C43 2 14-33 14-96s30-98 90-98c62 0 83 45 84 108H66c0 31 8 55 39 56 18 0 30-7 34-22zm-45-69c5-46-57-63-70-21-2 6-4 13-4 21h74" id="S"/><path fill="#333" d="M25 0v-261h50V0H25" id="T"/><g id="h"><use transform="matrix(0.04938271604938272,0,0,0.04938271604938272,0,0)" xlink:href="#P"/><use transform="matrix(0.04938271604938272,0,0,0.04938271604938272,12.790123456790125,0)" xlink:href="#Q"/><use transform="matrix(0.04938271604938272,0,0,0.04938271604938272,22.66666666666667,0)" xlink:href="#R"/><use transform="matrix(0.04938271604938272,0,0,0.04938271604938272,38.46913580246914,0)" xlink:href="#S"/><use transform="matrix(0.04938271604938272,0,0,0.04938271604938272,48.345679012345684,0)" xlink:href="#T"/></g><path fill="#333" d="M135-194c53 0 70 44 70 98 0 56-19 98-73 100-31 1-45-17-59-34 3 33 2 69 2 105H25l-1-265h48c2 10 0 23 3 31 11-24 29-35 60-35zM114-30c33 0 39-31 40-66 0-38-9-64-40-64-56 0-55 130 0 130" id="U"/><path fill="#333" d="M25-224v-37h50v37H25zM25 0v-190h50V0H25" id="V"/><path fill="#333" d="M190-63c-7 42-38 67-86 67-59 0-84-38-90-98-12-110 154-137 174-36l-49 2c-2-19-15-32-35-32-30 0-35 28-38 64-6 74 65 87 74 30" id="W"/><path fill="#333" d="M115-3C79 11 28 4 28-45v-112H4v-33h27l15-45h31v45h36v33H77v99c-1 23 16 31 38 25v30" id="X"/><path fill="#333" d="M110-194c64 0 96 36 96 99 0 64-35 99-97 99-61 0-95-36-95-99 0-62 34-99 96-99zm-1 164c35 0 45-28 45-65 0-40-10-65-43-65-34 0-45 26-45 65 0 36 10 65 43 65" id="Y"/><path fill="#333" d="M135-194c87-1 58 113 63 194h-50c-7-57 23-157-34-157-59 0-34 97-39 157H25l-1-190h47c2 12-1 28 3 38 12-26 28-41 61-42" id="Z"/><g id="i"><use transform="matrix(0.04938271604938272,0,0,0.04938271604938272,0,0)" xlink:href="#Q"/><use transform="matrix(0.04938271604938272,0,0,0.04938271604938272,9.876543209876544,0)" xlink:href="#U"/><use transform="matrix(0.04938271604938272,0,0,0.04938271604938272,20.69135802469136,0)" xlink:href="#U"/><use transform="matrix(0.04938271604938272,0,0,0.04938271604938272,31.506172839506174,0)" xlink:href="#T"/><use transform="matrix(0.04938271604938272,0,0,0.04938271604938272,36.44444444444445,0)" xlink:href="#V"/><use transform="matrix(0.04938271604938272,0,0,0.04938271604938272,41.38271604938272,0)" xlink:href="#W"/><use transform="matrix(0.04938271604938272,0,0,0.04938271604938272,51.25925925925927,0)" xlink:href="#Q"/><use transform="matrix(0.04938271604938272,0,0,0.04938271604938272,61.13580246913581,0)" xlink:href="#X"/><use transform="matrix(0.04938271604938272,0,0,0.04938271604938272,67.01234567901236,0)" xlink:href="#V"/><use transform="matrix(0.04938271604938272,0,0,0.04938271604938272,71.95061728395063,0)" xlink:href="#Y"/><use transform="matrix(0.04938271604938272,0,0,0.04938271604938272,82.76543209876544,0)" xlink:href="#Z"/></g><path fill="#333" d="M135-150c-39-12-60 13-60 57V0H25l-1-190h47c2 13-1 29 3 40 6-28 27-53 61-41v41" id="aa"/><g id="j"><use transform="matrix(0.04938271604938272,0,0,0.04938271604938272,0,0)" xlink:href="#W"/><use transform="matrix(0.04938271604938272,0,0,0.04938271604938272,9.876543209876544,0)" xlink:href="#Y"/><use transform="matrix(0.04938271604938272,0,0,0.04938271604938272,20.69135802469136,0)" xlink:href="#Z"/><use transform="matrix(0.04938271604938272,0,0,0.04938271604938272,31.506172839506174,0)" xlink:href="#X"/><use transform="matrix(0.04938271604938272,0,0,0.04938271604938272,37.38271604938272,0)" xlink:href="#Q"/><use transform="matrix(0.04938271604938272,0,0,0.04938271604938272,47.25925925925927,0)" xlink:href="#V"/><use transform="matrix(0.04938271604938272,0,0,0.04938271604938272,52.19753086419754,0)" xlink:href="#Z"/><use transform="matrix(0.04938271604938272,0,0,0.04938271604938272,63.01234567901235,0)" xlink:href="#S"/><use transform="matrix(0.04938271604938272,0,0,0.04938271604938272,72.8888888888889,0)" xlink:href="#aa"/></g><path fill="#3a414a" d="M106-169C34-169 62-67 57 0H25v-261h32l-1 103c12-21 28-36 61-36 89 0 53 116 60 194h-32v-121c2-32-8-49-39-48" id="ab"/><path fill="#3a414a" d="M33-154v-36h34v36H33zM33 0v-36h34V0H33" id="ac"/><path fill="#3a414a" d="M0 4l72-265h28L28 4H0" id="ad"/><path fill="#3a414a" d="M220-157c-53 9-28 100-34 157h-49v-107c1-27-5-49-29-50C55-147 81-57 75 0H25l-1-190h47c2 12-1 28 3 38 10-53 101-56 108 0 13-22 24-43 59-42 82 1 51 116 57 194h-49v-107c-1-25-5-48-29-50" id="ae"/><path fill="#3a414a" d="M123 10C108 53 80 86 19 72V37c35 8 53-11 59-39L3-190h52l48 148c12-52 28-100 44-148h51" id="af"/><path fill="#3a414a" d="M14-72v-43h91v43H14" id="ag"/><path fill="#3a414a" d="M190-63c-7 42-38 67-86 67-59 0-84-38-90-98-12-110 154-137 174-36l-49 2c-2-19-15-32-35-32-30 0-35 28-38 64-6 74 65 87 74 30" id="ah"/><path fill="#3a414a" d="M110-194c64 0 96 36 96 99 0 64-35 99-97 99-61 0-95-36-95-99 0-62 34-99 96-99zm-1 164c35 0 45-28 45-65 0-40-10-65-43-65-34 0-45 26-45 65 0 36 10 65 43 65" id="ai"/><path fill="#3a414a" d="M135-194c87-1 58 113 63 194h-50c-7-57 23-157-34-157-59 0-34 97-39 157H25l-1-190h47c2 12-1 28 3 38 12-26 28-41 61-42" id="aj"/><path fill="#3a414a" d="M115-3C79 11 28 4 28-45v-112H4v-33h27l15-45h31v45h36v33H77v99c-1 23 16 31 38 25v30" id="ak"/><path fill="#3a414a" d="M133-34C117-15 103 5 69 4 32 3 11-16 11-54c-1-60 55-63 116-61 1-26-3-47-28-47-18 1-26 9-28 27l-52-2c7-38 36-58 82-57s74 22 75 68l1 82c-1 14 12 18 25 15v27c-30 8-71 5-69-32zm-48 3c29 0 43-24 42-57-32 0-66-3-65 30 0 17 8 27 23 27" id="al"/><path fill="#3a414a" d="M25-224v-37h50v37H25zM25 0v-190h50V0H25" id="am"/><path fill="#3a414a" d="M185-48c-13 30-37 53-82 52C43 2 14-33 14-96s30-98 90-98c62 0 83 45 84 108H66c0 31 8 55 39 56 18 0 30-7 34-22zm-45-69c5-46-57-63-70-21-2 6-4 13-4 21h74" id="an"/><path fill="#3a414a" d="M135-150c-39-12-60 13-60 57V0H25l-1-190h47c2 13-1 29 3 40 6-28 27-53 61-41v41" id="ao"/><path fill="#3a414a" d="M195-6C206 82 75 100 31 46c-4-6-6-13-8-21l49-6c3 16 16 24 34 25 40 0 42-37 40-79-11 22-30 35-61 35-53 0-70-43-70-97 0-56 18-96 73-97 30 0 46 14 59 34l2-30h47zm-90-29c32 0 41-27 41-63 0-35-9-62-40-62-32 0-39 29-40 63 0 36 9 62 39 62" id="ap"/><path fill="#3a414a" d="M137-138c1-29-70-34-71-4 15 46 118 7 119 86 1 83-164 76-172 9l43-7c4 19 20 25 44 25 33 8 57-30 24-41C81-84 22-81 20-136c-2-80 154-74 161-7" id="aq"/><g id="k"><use transform="matrix(0.06172839506172839,0,0,0.06172839506172839,0,0)" xlink:href="#ab"/><use transform="matrix(0.06172839506172839,0,0,0.06172839506172839,12.345679012345679,0)" xlink:href="#D"/><use transform="matrix(0.06172839506172839,0,0,0.06172839506172839,18.51851851851852,0)" xlink:href="#D"/><use transform="matrix(0.06172839506172839,0,0,0.06172839506172839,24.691358024691358,0)" xlink:href="#B"/><use transform="matrix(0.06172839506172839,0,0,0.06172839506172839,37.03703703703704,0)" xlink:href="#I"/><use transform="matrix(0.06172839506172839,0,0,0.06172839506172839,48.14814814814815,0)" xlink:href="#ac"/><use transform="matrix(0.06172839506172839,0,0,0.06172839506172839,54.320987654320994,0)" xlink:href="#ad"/><use transform="matrix(0.06172839506172839,0,0,0.06172839506172839,60.49382716049384,0)" xlink:href="#ad"/><use transform="matrix(0.06172839506172839,0,0,0.06172839506172839,66.66666666666667,0)" xlink:href="#ae"/><use transform="matrix(0.06172839506172839,0,0,0.06172839506172839,86.41975308641976,0)" xlink:href="#af"/><use transform="matrix(0.06172839506172839,0,0,0.06172839506172839,98.76543209876544,0)" xlink:href="#ag"/><use transform="matrix(0.06172839506172839,0,0,0.06172839506172839,106.11111111111113,0)" xlink:href="#ah"/><use transform="matrix(0.06172839506172839,0,0,0.06172839506172839,118.45679012345681,0)" xlink:href="#ai"/><use transform="matrix(0.06172839506172839,0,0,0.06172839506172839,131.97530864197532,0)" xlink:href="#aj"/><use transform="matrix(0.06172839506172839,0,0,0.06172839506172839,145.49382716049382,0)" xlink:href="#ak"/><use transform="matrix(0.06172839506172839,0,0,0.06172839506172839,152.8395061728395,0)" xlink:href="#al"/><use transform="matrix(0.06172839506172839,0,0,0.06172839506172839,165.18518518518516,0)" xlink:href="#am"/><use transform="matrix(0.06172839506172839,0,0,0.06172839506172839,171.358024691358,0)" xlink:href="#aj"/><use transform="matrix(0.06172839506172839,0,0,0.06172839506172839,184.8765432098765,0)" xlink:href="#an"/><use transform="matrix(0.06172839506172839,0,0,0.06172839506172839,197.22222222222217,0)" xlink:href="#ao"/><use transform="matrix(0.06172839506172839,0,0,0.06172839506172839,205.86419753086415,0)" xlink:href="#ag"/><use transform="matrix(0.06172839506172839,0,0,0.06172839506172839,213.20987654320982,0)" xlink:href="#ao"/><use transform="matrix(0.06172839506172839,0,0,0.06172839506172839,221.8518518518518,0)" xlink:href="#an"/><use transform="matrix(0.06172839506172839,0,0,0.06172839506172839,234.19753086419746,0)" xlink:href="#ap"/><use transform="matrix(0.06172839506172839,0,0,0.06172839506172839,247.71604938271597,0)" xlink:href="#am"/><use transform="matrix(0.06172839506172839,0,0,0.06172839506172839,253.88888888888883,0)" xlink:href="#aq"/><use transform="matrix(0.06172839506172839,0,0,0.06172839506172839,266.23456790123447,0)" xlink:href="#ak"/><use transform="matrix(0.06172839506172839,0,0,0.06172839506172839,273.58024691358014,0)" xlink:href="#ao"/><use transform="matrix(0.06172839506172839,0,0,0.06172839506172839,282.2222222222221,0)" xlink:href="#af"/><use transform="matrix(0.06172839506172839,0,0,0.06172839506172839,294.5679012345678,0)" xlink:href="#ad"/></g><g id="l"><use transform="matrix(0.06172839506172839,0,0,0.06172839506172839,0,0)" xlink:href="#z"/><use transform="matrix(0.06172839506172839,0,0,0.06172839506172839,14.814814814814813,0)" xlink:href="#F"/><use transform="matrix(0.06172839506172839,0,0,0.06172839506172839,27.160493827160494,0)" xlink:href="#G"/><use transform="matrix(0.06172839506172839,0,0,0.06172839506172839,39.50617283950617,0)" xlink:href="#x"/><use transform="matrix(0.06172839506172839,0,0,0.06172839506172839,51.85185185185185,0)" xlink:href="#y"/><use transform="matrix(0.06172839506172839,0,0,0.06172839506172839,56.72839506172839,0)" xlink:href="#x"/><use transform="matrix(0.06172839506172839,0,0,0.06172839506172839,69.07407407407408,0)" xlink:href="#D"/></g><path fill="#3a414a" d="M33 0v-248h34V0H33" id="ar"/><path fill="#3a414a" d="M177-190C167-65 218 103 67 71c-23-6-38-20-44-43l32-5c15 47 100 32 89-28v-30C133-14 115 1 83 1 29 1 15-40 15-95c0-56 16-97 71-98 29-1 48 16 59 35 1-10 0-23 2-32h30zM94-22c36 0 50-32 50-73 0-42-14-75-50-75-39 0-46 34-46 75s6 73 46 73" id="as"/><path fill="#3a414a" d="M24-231v-30h32v30H24zM24 0v-190h32V0H24" id="at"/><g id="m"><use transform="matrix(0.06172839506172839,0,0,0.06172839506172839,0,0)" xlink:href="#ar"/><use transform="matrix(0.06172839506172839,0,0,0.06172839506172839,6.172839506172839,0)" xlink:href="#H"/><use transform="matrix(0.06172839506172839,0,0,0.06172839506172839,18.51851851851852,0)" xlink:href="#D"/><use transform="matrix(0.06172839506172839,0,0,0.06172839506172839,24.691358024691358,0)" xlink:href="#x"/><use transform="matrix(0.06172839506172839,0,0,0.06172839506172839,37.03703703703704,0)" xlink:href="#as"/><use transform="matrix(0.06172839506172839,0,0,0.06172839506172839,49.382716049382715,0)" xlink:href="#C"/><use transform="matrix(0.06172839506172839,0,0,0.06172839506172839,56.72839506172839,0)" xlink:href="#v"/><use transform="matrix(0.06172839506172839,0,0,0.06172839506172839,69.07407407407408,0)" xlink:href="#D"/><use transform="matrix(0.06172839506172839,0,0,0.06172839506172839,75.24691358024691,0)" xlink:href="#at"/><use transform="matrix(0.06172839506172839,0,0,0.06172839506172839,80.12345679012346,0)" xlink:href="#E"/><use transform="matrix(0.06172839506172839,0,0,0.06172839506172839,92.46913580246914,0)" xlink:href="#H"/></g><path fill="#3a414a" d="M96-169c-40 0-48 33-48 73s9 75 48 75c24 0 41-14 43-38l32 2c-6 37-31 61-74 61-59 0-76-41-82-99-10-93 101-131 147-64 4 7 5 14 7 22l-32 3c-4-21-16-35-41-35" id="au"/><path fill="#3a414a" d="M16-82v-28h88v28H16" id="av"/><path fill="#3a414a" d="M143 0L79-87 56-68V0H24v-261h32v163l83-92h37l-77 82L181 0h-38" id="aw"/><path fill="#3a414a" d="M198-261c85 0 136 45 136 128 0 61-22 111-78 115-29 2-39-18-37-44-12 23-32 44-66 44-41 0-58-28-58-68 0-60 30-105 88-108 29-1 43 15 54 32l7-28h28c-9 45-23 84-27 134-1 11 6 17 14 16 39-4 51-48 51-92 0-69-42-107-112-107-93 0-145 59-145 153C53-15 94 26 168 27c43 0 78-13 106-28l9 19c-30 18-67 32-115 32C79 50 28-1 28-86c0-107 62-175 170-175zM158-41c46 0 70-43 70-90 0-26-17-40-43-40-44 0-59 41-61 85-1 26 9 45 34 45" id="ax"/><path fill="#3a414a" d="M27 0v-27h64v-190l-56 39v-29l58-41h29v221h61V0H27" id="ay"/><g id="n"><use transform="matrix(0.06172839506172839,0,0,0.06172839506172839,0,0)" xlink:href="#at"/><use transform="matrix(0.06172839506172839,0,0,0.06172839506172839,4.876543209876543,0)" xlink:href="#w"/><use transform="matrix(0.06172839506172839,0,0,0.06172839506172839,23.33333333333333,0)" xlink:href="#v"/><use transform="matrix(0.06172839506172839,0,0,0.06172839506172839,35.679012345679006,0)" xlink:href="#as"/><use transform="matrix(0.06172839506172839,0,0,0.06172839506172839,48.02469135802468,0)" xlink:href="#x"/><use transform="matrix(0.06172839506172839,0,0,0.06172839506172839,60.37037037037036,0)" xlink:href="#ac"/><use transform="matrix(0.06172839506172839,0,0,0.06172839506172839,66.5432098765432,0)" xlink:href="#ae"/><use transform="matrix(0.06172839506172839,0,0,0.06172839506172839,86.29629629629629,0)" xlink:href="#af"/><use transform="matrix(0.06172839506172839,0,0,0.06172839506172839,98.64197530864197,0)" xlink:href="#ag"/><use transform="matrix(0.06172839506172839,0,0,0.06172839506172839,105.98765432098766,0)" xlink:href="#ah"/><use transform="matrix(0.06172839506172839,0,0,0.06172839506172839,118.33333333333334,0)" xlink:href="#ai"/><use transform="matrix(0.06172839506172839,0,0,0.06172839506172839,131.85185185185185,0)" xlink:href="#aj"/><use transform="matrix(0.06172839506172839,0,0,0.06172839506172839,145.37037037037035,0)" xlink:href="#ak"/><use transform="matrix(0.06172839506172839,0,0,0.06172839506172839,152.71604938271602,0)" xlink:href="#al"/><use transform="matrix(0.06172839506172839,0,0,0.06172839506172839,165.0617283950617,0)" xlink:href="#am"/><use transform="matrix(0.06172839506172839,0,0,0.06172839506172839,171.23456790123453,0)" xlink:href="#aj"/><use transform="matrix(0.06172839506172839,0,0,0.06172839506172839,184.75308641975303,0)" xlink:href="#an"/><use transform="matrix(0.06172839506172839,0,0,0.06172839506172839,197.0987654320987,0)" xlink:href="#ao"/><use transform="matrix(0.06172839506172839,0,0,0.06172839506172839,205.74074074074068,0)" xlink:href="#ag"/><use transform="matrix(0.06172839506172839,0,0,0.06172839506172839,213.08641975308635,0)" xlink:href="#ao"/><use transform="matrix(0.06172839506172839,0,0,0.06172839506172839,221.72839506172832,0)" xlink:href="#an"/><use transform="matrix(0.06172839506172839,0,0,0.06172839506172839,234.074074074074,0)" xlink:href="#ap"/><use transform="matrix(0.06172839506172839,0,0,0.06172839506172839,247.5925925925925,0)" xlink:href="#am"/><use transform="matrix(0.06172839506172839,0,0,0.06172839506172839,253.7654320987653,0)" xlink:href="#aq"/><use transform="matrix(0.06172839506172839,0,0,0.06172839506172839,266.11111111111103,0)" xlink:href="#ak"/><use transform="matrix(0.06172839506172839,0,0,0.06172839506172839,273.4567901234567,0)" xlink:href="#ao"/><use transform="matrix(0.06172839506172839,0,0,0.06172839506172839,282.0987654320987,0)" xlink:href="#af"/><use transform="matrix(0.06172839506172839,0,0,0.06172839506172839,294.44444444444434,0)" xlink:href="#ad"/><use transform="matrix(0.06172839506172839,0,0,0.06172839506172839,300.6172839506172,0)" xlink:href="#H"/><use transform="matrix(0.06172839506172839,0,0,0.06172839506172839,312.9629629629629,0)" xlink:href="#I"/><use transform="matrix(0.06172839506172839,0,0,0.06172839506172839,324.07407407407396,0)" xlink:href="#ad"/><use transform="matrix(0.06172839506172839,0,0,0.06172839506172839,330.2469135802468,0)" xlink:href="#au"/><use transform="matrix(0.06172839506172839,0,0,0.06172839506172839,341.3580246913579,0)" xlink:href="#v"/><use transform="matrix(0.06172839506172839,0,0,0.06172839506172839,353.7037037037036,0)" xlink:href="#w"/><use transform="matrix(0.06172839506172839,0,0,0.06172839506172839,372.1604938271604,0)" xlink:href="#x"/><use transform="matrix(0.06172839506172839,0,0,0.06172839506172839,384.50617283950606,0)" xlink:href="#y"/><use transform="matrix(0.06172839506172839,0,0,0.06172839506172839,389.3827160493826,0)" xlink:href="#av"/><use transform="matrix(0.06172839506172839,0,0,0.06172839506172839,396.7283950617283,0)" xlink:href="#aw"/><use transform="matrix(0.06172839506172839,0,0,0.06172839506172839,407.8395061728394,0)" xlink:href="#av"/><use transform="matrix(0.06172839506172839,0,0,0.06172839506172839,415.18518518518505,0)" xlink:href="#aw"/><use transform="matrix(0.06172839506172839,0,0,0.06172839506172839,426.29629629629613,0)" xlink:href="#at"/><use transform="matrix(0.06172839506172839,0,0,0.06172839506172839,431.1728395061727,0)" xlink:href="#D"/><use transform="matrix(0.06172839506172839,0,0,0.06172839506172839,437.34567901234556,0)" xlink:href="#ax"/><use transform="matrix(0.06172839506172839,0,0,0.06172839506172839,459.87654320987644,0)" xlink:href="#I"/><use transform="matrix(0.06172839506172839,0,0,0.06172839506172839,470.98765432098753,0)" xlink:href="#ab"/><use transform="matrix(0.06172839506172839,0,0,0.06172839506172839,483.3333333333332,0)" xlink:href="#v"/><use transform="matrix(0.06172839506172839,0,0,0.06172839506172839,495.67901234567887,0)" xlink:href="#ay"/></g><g id="o"><use transform="matrix(0.04938271604938272,0,0,0.04938271604938272,0,0)" xlink:href="#P"/><use transform="matrix(0.04938271604938272,0,0,0.04938271604938272,12.790123456790125,0)" xlink:href="#aa"/><use transform="matrix(0.04938271604938272,0,0,0.04938271604938272,19.703703703703706,0)" xlink:href="#S"/><use transform="matrix(0.04938271604938272,0,0,0.04938271604938272,29.58024691358025,0)" xlink:href="#Q"/><use transform="matrix(0.04938271604938272,0,0,0.04938271604938272,39.4567901234568,0)" xlink:href="#X"/><use transform="matrix(0.04938271604938272,0,0,0.04938271604938272,45.33333333333334,0)" xlink:href="#S"/></g><g id="p"><use transform="matrix(0.04938271604938272,0,0,0.04938271604938272,0,0)" xlink:href="#Q"/><use transform="matrix(0.04938271604938272,0,0,0.04938271604938272,9.876543209876544,0)" xlink:href="#U"/><use transform="matrix(0.04938271604938272,0,0,0.04938271604938272,20.69135802469136,0)" xlink:href="#U"/><use transform="matrix(0.04938271604938272,0,0,0.04938271604938272,31.506172839506174,0)" xlink:href="#T"/><use transform="matrix(0.04938271604938272,0,0,0.04938271604938272,36.44444444444445,0)" xlink:href="#V"/><use transform="matrix(0.04938271604938272,0,0,0.04938271604938272,41.38271604938272,0)" xlink:href="#W"/><use transform="matrix(0.04938271604938272,0,0,0.04938271604938272,51.25925925925927,0)" xlink:href="#Q"/><use transform="matrix(0.04938271604938272,0,0,0.04938271604938272,61.13580246913581,0)" xlink:href="#X"/><use transform="matrix(0.04938271604938272,0,0,0.04938271604938272,67.01234567901236,0)" xlink:href="#V"/><use transform="matrix(0.04938271604938272,0,0,0.04938271604938272,71.95061728395063,0)" xlink:href="#Y"/><use transform="matrix(0.04938271604938272,0,0,0.04938271604938272,82.76543209876544,0)" xlink:href="#Z"/></g><path fill="#333" d="M24-248c120-7 223 5 221 122C244-46 201 0 124 0H24v-248zM76-40c74 7 117-18 117-86 0-67-45-88-117-82v168" id="az"/><path fill="#333" d="M123 10C108 53 80 86 19 72V37c35 8 53-11 59-39L3-190h52l48 148c12-52 28-100 44-148h51" id="aA"/><g id="q"><use transform="matrix(0.04938271604938272,0,0,0.04938271604938272,0,0)" xlink:href="#az"/><use transform="matrix(0.04938271604938272,0,0,0.04938271604938272,12.790123456790125,0)" xlink:href="#S"/><use transform="matrix(0.04938271604938272,0,0,0.04938271604938272,22.66666666666667,0)" xlink:href="#U"/><use transform="matrix(0.04938271604938272,0,0,0.04938271604938272,33.48148148148149,0)" xlink:href="#T"/><use transform="matrix(0.04938271604938272,0,0,0.04938271604938272,38.41975308641976,0)" xlink:href="#Y"/><use transform="matrix(0.04938271604938272,0,0,0.04938271604938272,49.23456790123458,0)" xlink:href="#aA"/><use transform="matrix(0.04938271604938272,0,0,0.04938271604938272,59.111111111111114,0)" xlink:href="#R"/><use transform="matrix(0.04938271604938272,0,0,0.04938271604938272,74.9135802469136,0)" xlink:href="#S"/><use transform="matrix(0.04938271604938272,0,0,0.04938271604938272,84.79012345679014,0)" xlink:href="#Z"/><use transform="matrix(0.04938271604938272,0,0,0.04938271604938272,95.60493827160495,0)" xlink:href="#X"/></g><g id="r"><use transform="matrix(0.04938271604938272,0,0,0.04938271604938272,0,0)" xlink:href="#az"/><use transform="matrix(0.04938271604938272,0,0,0.04938271604938272,12.790123456790125,0)" xlink:href="#S"/><use transform="matrix(0.04938271604938272,0,0,0.04938271604938272,22.66666666666667,0)" xlink:href="#U"/><use transform="matrix(0.04938271604938272,0,0,0.04938271604938272,33.48148148148149,0)" xlink:href="#T"/><use transform="matrix(0.04938271604938272,0,0,0.04938271604938272,38.41975308641976,0)" xlink:href="#Y"/><use transform="matrix(0.04938271604938272,0,0,0.04938271604938272,49.23456790123458,0)" xlink:href="#aA"/></g><path fill="#333" d="M88-194c31-1 46 15 58 34l-1-101h50l1 261h-48c-2-10 0-23-3-31C134-8 116 4 84 4 32 4 16-41 15-95c0-56 19-97 73-99zm17 164c33 0 40-30 41-66 1-37-9-64-41-64s-38 30-39 65c0 43 13 65 39 65" id="aB"/><g id="s"><use transform="matrix(0.04938271604938272,0,0,0.04938271604938272,0,0)" xlink:href="#Q"/><use transform="matrix(0.04938271604938272,0,0,0.04938271604938272,9.876543209876544,0)" xlink:href="#Z"/><use transform="matrix(0.04938271604938272,0,0,0.04938271604938272,20.69135802469136,0)" xlink:href="#aB"/></g><g id="t"><use transform="matrix(0.04938271604938272,0,0,0.04938271604938272,0,0)" xlink:href="#aa"/><use transform="matrix(0.04938271604938272,0,0,0.04938271604938272,6.913580246913581,0)" xlink:href="#M"/><use transform="matrix(0.04938271604938272,0,0,0.04938271604938272,17.728395061728396,0)" xlink:href="#Z"/></g></defs></g></svg>