<svg xmlns="http://www.w3.org/2000/svg" xmlns:xlink="http://www.w3.org/1999/xlink" xmlns:lucid="lucid" width="1180.5" height="741"><g transform="translate(340.5 180.5)" lucid:page-tab-id="0_0"><path d="M-320-94a6 6 0 0 1 6-6h868a6 6 0 0 1 6 6v628a6 6 0 0 1-6 6h-868a6 6 0 0 1-6-6z" stroke="#3a414a" fill="#fff"/><path d="M-220.34 163.17c-1.14.1-2.05.34-2.96.8l-39.44 19.43c-2.16 1.02-3.64 2.84-4.1 5.23l-9.77 43.76c-.47 2.04-.13 4.08 1 5.9.13.23.24.34.47.57l27.28 35c1.48 1.94 3.52 2.97 5.9 2.97h43.9c2.38 0 4.42-1.03 5.9-2.96l27.28-35c1.48-1.94 2.05-4.22 1.48-6.6l-9.77-43.65c-.45-2.4-1.93-4.2-4.1-5.23l-39.43-19.44c-1.25-.57-2.4-.9-3.64-.8z" stroke="#000" stroke-opacity="0" stroke-width="0" fill="#326ce5"/><path d="M-220.36 160c-1.2.12-2.16.36-3.12.84l-41.64 20.52c-2.28 1.08-3.84 3-4.32 5.52l-10.32 46.2c-.48 2.16-.12 4.32 1.08 6.24.12.24.24.36.48.6l28.8 36.96c1.56 2.04 3.72 3.12 6.24 3.12h46.32c2.52 0 4.68-1.08 6.24-3.12l28.8-36.96c1.56-2.04 2.16-4.44 1.56-6.84l-10.32-46.2c-.48-2.52-2.04-4.44-4.32-5.52l-41.64-20.52c-1.32-.6-2.52-.96-3.84-.84zm0 3.12c1.32 0 2.4.24 3.6.84l39.6 19.44c2.04 1.08 3.48 2.88 4.08 5.28l9.72 43.68c.48 2.4 0 4.56-1.44 6.48l-27.36 35.04c-1.44 1.92-3.48 3-5.88 3h-43.92c-2.4 0-4.44-1.08-5.88-3l-27.36-35.04c-.12-.12-.24-.36-.36-.6-1.2-1.8-1.56-3.72-1.08-5.88l9.72-43.68c.6-2.4 1.92-4.2 4.08-5.28l39.6-19.44c.96-.48 1.8-.72 2.88-.84z" stroke="#000" stroke-opacity="0" stroke-width="0" fill="#fff"/><path d="M-244.1 202.6l24.1-7.2 24.1 7.2-24.1 7.2zM-244.1 205.36v26.4l22.45 12.84.12-32.33zM-195.9 205.36v26.4l-22.45 12.84-.12-32.33z" stroke="#000" stroke-opacity="0" fill="#fff"/><use xlink:href="#a" transform="matrix(1,0,0,1,-310,289) translate(47.50000000000001 17.77777777777778)"/><use xlink:href="#b" transform="matrix(1,0,0,1,-310,289) translate(117.68518518518519 17.77777777777778)"/><use xlink:href="#c" transform="matrix(1,0,0,1,-310,289) translate(8.672839506172863 44.44444444444444)"/><path d="M68.67 286a6 6 0 0 1 6-6h422a6 6 0 0 1 6 6v226.33a6 6 0 0 1-6 6h-422a6 6 0 0 1-6-6z" stroke="#3a414a" fill="#fff"/><path d="M-320-154a6 6 0 0 1 6-6h488a6 6 0 0 1 6 6v51.33a6 6 0 0 1-6 6h-488a6 6 0 0 1-6-6z" stroke="#000" stroke-opacity="0" fill="#fff" fill-opacity="0"/><use xlink:href="#d" transform="matrix(1,0,0,1,-315,-155) translate(120.46296296296298 31.27777777777778)"/><use xlink:href="#e" transform="matrix(1,0,0,1,-315,-155) translate(240.15432098765433 31.27777777777778)"/><use xlink:href="#f" transform="matrix(1,0,0,1,-315,-155) translate(316.51234567901236 31.27777777777778)"/><path d="M80-32.33a6 6 0 0 1 6-6h410.67a6 6 0 0 1 6 6V194a6 6 0 0 1-6 6H86a6 6 0 0 1-6-6z" fill="#fff"/><path d="M105.56-38.33h19.55m9.8 0h19.54m9.78 0h19.56m9.78 0h19.55m9.8 0h19.54m9.78 0h19.56m9.78 0h19.55m9.8 0h19.54m9.78 0h19.56m9.78 0h19.55m9.8 0h19.54m9.78 0h19.56m9.78 0h19.55m9.8 0h9.77l.94.07.92.22.87.36.8.5.7.6.62.72.5.8.35.87.22.93.07.94v9.43m0 9.43V5.4m0 9.42v18.86m0 9.43v18.87m0 9.43v18.86m0 9.43v18.86m0 9.43v18.85m0 9.43v18.86m0 9.43V194l-.08.94-.23.9-.36.88-.48.8-.6.72-.73.6-.8.5-.88.37-.9.23-.95.07h-9.78m-9.8 0h-19.54m-9.78 0h-19.56m-9.78 0H398.9m-9.8 0h-19.54m-9.78 0h-19.56m-9.78 0H310.9m-9.8 0h-19.54m-9.78 0h-19.56m-9.78 0H222.9m-9.8 0h-19.54m-9.78 0h-19.56m-9.78 0H134.9m-9.8 0h-19.54m-9.78 0H86l-.94-.07-.9-.22-.88-.35-.8-.5-.72-.6-.6-.72-.5-.8-.37-.88-.23-.9L80 194v-9.43m0-9.43v-18.86m0-9.43V128m0-9.44V99.7m0-9.44V71.4m0-9.43V43.1m0-9.42V14.82m0-9.43v-18.87m0-9.43v-9.43l.07-.94.22-.92.35-.86.5-.8.6-.72.72-.6.8-.5.88-.36.9-.22.95-.07h9.78" stroke="#3a414a" fill="none"/><path d="M279.66-1.83c-1.14.1-2.05.34-2.96.8L237.26 18.4c-2.16 1.02-3.64 2.84-4.1 5.23L223.4 67.4c-.47 2.04-.13 4.08 1 5.9.13.23.24.34.47.57l27.28 35c1.48 1.94 3.52 2.97 5.9 2.97h43.9c2.38 0 4.42-1.03 5.9-2.96l27.28-35c1.48-1.94 2.05-4.2 1.48-6.6l-9.77-43.65c-.45-2.4-1.93-4.2-4.1-5.23L283.3-1.04c-1.25-.57-2.4-.9-3.64-.8z" stroke="#000" stroke-opacity="0" stroke-width="0" fill="#326ce5"/><path d="M279.64-5c-1.2.12-2.16.36-3.12.84l-41.64 20.52c-2.28 1.08-3.84 3-4.32 5.52l-10.32 46.2c-.48 2.16-.12 4.32 1.08 6.24.12.24.24.36.48.6l28.8 36.96c1.56 2.04 3.72 3.12 6.24 3.12h46.32c2.52 0 4.68-1.08 6.24-3.12l28.8-36.96c1.56-2.04 2.16-4.44 1.56-6.84l-10.32-46.2c-.48-2.52-2.04-4.44-4.32-5.52L283.48-4.16c-1.32-.6-2.52-.96-3.84-.84zm0 3.12c1.32 0 2.4.24 3.6.84l39.6 19.44c2.04 1.08 3.48 2.88 4.08 5.28l9.72 43.68c.48 2.4 0 4.56-1.44 6.48l-27.36 35.04c-1.44 1.92-3.48 3-5.88 3h-43.92c-2.4 0-4.44-1.08-5.88-3L224.8 73.84c-.12-.12-.24-.36-.36-.6-1.2-1.8-1.56-3.72-1.08-5.88l9.72-43.68c.6-2.4 1.92-4.2 4.08-5.28l39.6-19.44c.96-.48 1.8-.72 2.88-.84z" stroke="#000" stroke-opacity="0" stroke-width="0" fill="#fff"/><path d="M255.9 37.6l24.1-7.2 24.08 7.2L280 44.8zM255.9 40.36v26.4l22.45 12.83.12-32.33zM304.08 40.36v26.4L281.65 79.6l-.12-32.33z" stroke="#000" stroke-opacity="0" fill="#fff"/><use xlink:href="#g" transform="matrix(1,0,0,1,190,123.99999999999999) translate(0.617283950617292 17.77777777777778)"/><use xlink:href="#h" transform="matrix(1,0,0,1,190,123.99999999999999) translate(73.39506172839506 17.77777777777778)"/><use xlink:href="#i" transform="matrix(1,0,0,1,190,123.99999999999999) translate(46.23456790123456 44.44444444444444)"/><path d="M80-95.67a6 6 0 0 1 6-6h410.67a6 6 0 0 1 6 6v51.34a6 6 0 0 1-6 6H86a6 6 0 0 1-6-6z" stroke="#000" stroke-opacity="0" fill="#fff" fill-opacity="0"/><use xlink:href="#j" transform="matrix(1,0,0,1,85,-96.66666666666653) translate(65.93209876543213 31.09722222222222)"/><use xlink:href="#k" transform="matrix(1,0,0,1,85,-96.66666666666653) translate(136.94444444444446 31.09722222222222)"/><use xlink:href="#l" transform="matrix(1,0,0,1,85,-96.66666666666653) translate(166.57407407407408 31.09722222222222)"/><use xlink:href="#m" transform="matrix(1,0,0,1,85,-96.66666666666653) translate(233.6358024691358 31.09722222222222)"/><path d="M-220 159.53v-72.7a6 6 0 0 1 6-6H63.12" stroke="#3a414a" fill="none"/><path d="M-219.5 160.07l-.86-.07-.14.02v-.5h1z" stroke="#3a414a" stroke-width=".05" fill="#3a414a"/><path d="M77.88 80.83l-14.26 4.64V76.2z" stroke="#3a414a" fill="#3a414a"/><use xlink:href="#n" transform="matrix(1,0,0,1,-221.64874819083389,55.50000000000006) translate(0 14.222222222222223)"/><use xlink:href="#o" transform="matrix(1,0,0,1,-221.64874819083389,55.50000000000006) translate(49.23456790123457 14.222222222222223)"/><use xlink:href="#p" transform="matrix(1,0,0,1,-221.64874819083389,55.50000000000006) translate(107.4567901234568 14.222222222222223)"/><path d="M-220 280.5v110.67a6 6 0 0 0 6 6h423.63" stroke="#3a414a" fill="none"/><path d="M-219.5 280.5h-1v-.5h1z" stroke="#3a414a" stroke-width=".05" fill="#3a414a"/><path d="M224.4 397.17l-14.27 4.64v-9.26z" stroke="#3a414a" fill="#3a414a"/><use xlink:href="#q" transform="matrix(1,0,0,1,-208.13483107199232,401.170629) translate(0 14.222222222222223)"/><use xlink:href="#o" transform="matrix(1,0,0,1,-208.13483107199232,401.170629) translate(84.74074074074076 14.222222222222223)"/><use xlink:href="#r" transform="matrix(1,0,0,1,-208.13483107199232,401.170629) translate(142.962962962963 14.222222222222223)"/><use xlink:href="#s" transform="matrix(1,0,0,1,-208.13483107199232,401.170629) translate(241.48148148148152 14.222222222222223)"/><path d="M285.32 323.17c-1.13.1-2.04.34-2.95.8l-39.45 19.43c-2.16 1.02-3.63 2.84-4.1 5.23l-9.76 43.76c-.46 2.04-.12 4.1 1.02 5.9.1.23.22.34.45.57l27.28 35c1.5 1.94 3.54 2.97 5.93 2.97h43.88c2.4 0 4.44-1.03 5.92-2.96l27.28-35c1.48-1.94 2.05-4.2 1.48-6.6l-9.78-43.65c-.45-2.4-1.93-4.2-4.1-5.23l-39.44-19.44c-1.25-.56-2.38-.9-3.63-.8z" stroke="#000" stroke-opacity="0" stroke-width="3.83" fill="#326ce5"/><path d="M285.3 320c-1.2.12-2.15.36-3.1.84l-41.65 20.52c-2.28 1.08-3.84 3-4.32 5.52l-10.32 46.2c-.47 2.16-.1 4.32 1.1 6.24.1.24.23.36.47.6l28.8 36.96c1.56 2.04 3.72 3.12 6.24 3.12h46.33c2.52 0 4.68-1.08 6.24-3.12l28.8-36.96c1.56-2.04 2.16-4.44 1.56-6.84l-10.32-46.2c-.47-2.52-2.03-4.44-4.3-5.52l-41.65-20.52c-1.32-.6-2.52-.96-3.84-.84zm0 3.24c1.33-.12 2.4.12 3.6.72l39.6 19.44c2.05 1.08 3.5 2.88 4.1 5.28l9.7 43.68c.5 2.4 0 4.56-1.43 6.48l-27.36 35.04c-1.43 1.92-3.47 3-5.87 3H263.7c-2.4 0-4.43-1.08-5.87-3l-27.36-35.04c-.12-.12-.24-.36-.36-.6-1.2-1.8-1.55-3.72-1.07-5.88l9.72-43.68c.6-2.4 1.92-4.2 4.08-5.28l39.6-19.44c.96-.48 1.8-.72 2.88-.84z" stroke="#000" stroke-opacity="0" stroke-width="3.83" fill="#fff"/><path d="M254.88 368.13c0 4.25 13.8 7.7 30.8 7.7s30.78-3.44 30.78-7.7V389c0 4.24-13.8 7.7-30.8 7.7s-30.78-3.46-30.78-7.7z" stroke="#000" stroke-opacity="0" stroke-width="3.77" fill="#fff"/><path d="M254.88 368.13c0-4.26 13.8-7.7 30.8-7.7s30.78 3.44 30.78 7.7c0 4.25-13.8 7.7-30.8 7.7s-30.78-3.45-30.78-7.7z" stroke="#000" stroke-opacity="0" stroke-width="3.77" fill="#fff"/><path d="M285.66 359.5c-8.55 0-16.28.88-21.98 2.3-2.85.72-5.13 1.56-6.84 2.55-1.65 1-2.85 2.2-2.85 3.77V389c0 1.56 1.2 2.78 2.84 3.77 1.7 1 4 1.83 6.84 2.55 5.7 1.4 13.43 2.3 21.98 2.3s16.28-.9 21.98-2.3c2.85-.72 5.13-1.56 6.84-2.55 1.65-1 2.85-2.2 2.85-3.77v-20.88c0-1.56-1.2-2.78-2.85-3.77-1.7-1-4-1.83-6.84-2.56-5.7-1.42-13.43-2.3-21.98-2.3zm0 1.83c8.42 0 16.1.84 21.54 2.22 2.8.68 4.94 1.52 6.4 2.36 1.45.85 1.96 1.68 1.96 2.22 0 .57-.5 1.37-1.96 2.2-1.46.88-3.62 1.68-6.4 2.37-5.45 1.36-13.12 2.24-21.54 2.24-8.43 0-16.1-.88-21.54-2.25-2.8-.7-4.94-1.5-6.4-2.37-1.45-.84-1.96-1.64-1.96-2.2 0-.55.5-1.38 1.96-2.22 1.46-.83 3.6-1.67 6.4-2.35 5.45-1.38 13.12-2.22 21.54-2.22zm-29.9 9.15c.25.53.5 1 1.08 1.45 1.58 1.18 4 1.83 6.84 2.55 5.7 1.4 13.43 2.25 21.98 2.25s16.28-.84 21.98-2.25c2.85-.72 5.13-1.56 6.84-2.55.64-.46.9-1.03 1.08-1.45V389c0 .53-.5 1.37-1.96 2.2-1.46.84-3.62 1.68-6.4 2.37-5.45 1.37-13.12 2.2-21.54 2.2-8.43 0-16.1-.83-21.54-2.2-2.8-.7-4.94-1.53-6.4-2.36-1.45-.83-1.96-1.67-1.96-2.2z" stroke="#000" stroke-opacity="0" stroke-width="3.77" fill="#326ce5"/><use xlink:href="#t" transform="matrix(1,0,0,1,195.66666666666663,449) translate(41.944444444444436 17.77777777777778)"/><use xlink:href="#u" transform="matrix(1,0,0,1,195.66666666666663,449) translate(49.35185185185185 44.44444444444444)"/><path d="M63.33 226.33a6 6 0 0 1 6-6H480a6 6 0 0 1 6 6v51.34a6 6 0 0 1-6 6H69.33a6 6 0 0 1-6-6z" stroke="#000" stroke-opacity="0" fill="#fff" fill-opacity="0"/><path d="M633 258.07c-18.23 0-33-15.1-33-33.74 0-14.9 8.94-27.47 22.8-32.08C622 148.43 677 140 699 156.87c11-25.3 66-16.87 66 8.43 33-8.43 66 25.3 44 67.47 22 33.73 0 75.9-44 59.03-11 21.93-55 21.93-66 0-22 16.87-66 8.43-66-33.73z" stroke="#3a414a" fill="#fff"/><g><use xlink:href="#v" transform="matrix(1,0,0,1,605,145) translate(42.18518518518519 82.37152777777777)"/><use xlink:href="#w" transform="matrix(1,0,0,1,605,145) translate(86.5679012345679 82.37152777777777)"/></g><path d="M343 380h383a6 6 0 0 0 6-6v-48.9" stroke="#3a414a" fill="none"/><path d="M343.02 380.5h-.4l-.23-1h.62z" stroke="#3a414a" stroke-width=".05" fill="#3a414a"/><path d="M732 310.33l4.65 14.26h-9.27z" stroke="#3a414a" fill="#3a414a"/><g><use xlink:href="#x" transform="matrix(1,0,0,1,602.3703703703708,384) translate(0 14.222222222222223)"/></g><path d="M503.67 80.83h222.45a6 6 0 0 1 6 6v38" stroke="#3a414a" fill="none"/><path d="M503.68 81.33h-.5v-1h.5z" stroke="#3a414a" stroke-width=".05" fill="#3a414a"/><path d="M732.12 139.6l-4.63-14.26h9.26z" stroke="#3a414a" fill="#3a414a"/><g><use xlink:href="#x" transform="matrix(1,0,0,1,602.3518392173168,55.499999956635676) translate(0 14.222222222222223)"/></g><path d="M68.67 222.67a6 6 0 0 1 6-6h410.66a6 6 0 0 1 6 6V274a6 6 0 0 1-6 6H74.67a6 6 0 0 1-6-6z" stroke="#000" stroke-opacity="0" fill="#fff" fill-opacity="0"/><g><use xlink:href="#y" transform="matrix(1,0,0,1,73.6666666666668,221.66666666666666) translate(8.722222222222257 31.09722222222222)"/><use xlink:href="#z" transform="matrix(1,0,0,1,73.6666666666668,221.66666666666666) translate(59.9814814814815 31.09722222222222)"/><use xlink:href="#A" transform="matrix(1,0,0,1,73.6666666666668,221.66666666666666) translate(84.67283950617286 31.09722222222222)"/><use xlink:href="#B" transform="matrix(1,0,0,1,73.6666666666668,221.66666666666666) translate(157.6604938271605 31.09722222222222)"/><use xlink:href="#C" transform="matrix(1,0,0,1,73.6666666666668,221.66666666666666) translate(181.3641975308642 31.09722222222222)"/><use xlink:href="#D" transform="matrix(1,0,0,1,73.6666666666668,221.66666666666666) translate(210.99382716049382 31.09722222222222)"/><use xlink:href="#E" transform="matrix(1,0,0,1,73.6666666666668,221.66666666666666) translate(268.179012345679 31.09722222222222)"/><use xlink:href="#F" transform="matrix(1,0,0,1,73.6666666666668,221.66666666666666) translate(297.70987654320993 31.09722222222222)"/><use xlink:href="#G" transform="matrix(1,0,0,1,73.6666666666668,221.66666666666666) translate(322.40123456790127 31.09722222222222)"/></g><defs><path fill="#3a414a" d="M212-179c-10-28-35-45-73-45-59 0-87 40-87 99 0 60 29 101 89 101 43 0 62-24 78-52l27 14C228-24 195 4 139 4 59 4 22-46 18-125c-6-104 99-153 187-111 19 9 31 26 39 46" id="H"/><path fill="#3a414a" d="M141-36C126-15 110 5 73 4 37 3 15-17 15-53c-1-64 63-63 125-63 3-35-9-54-41-54-24 1-41 7-42 31l-33-3c5-37 33-52 76-52 45 0 72 20 72 64v82c-1 20 7 32 28 27v20c-31 9-61-2-59-35zM48-53c0 20 12 33 32 33 41-3 63-29 60-74-43 2-92-5-92 41" id="I"/><path fill="#3a414a" d="M210-169c-67 3-38 105-44 169h-31v-121c0-29-5-50-35-48C34-165 62-65 56 0H25l-1-190h30c1 10-1 24 2 32 10-44 99-50 107 0 11-21 27-35 58-36 85-2 47 119 55 194h-31v-121c0-29-5-49-35-48" id="J"/><path fill="#3a414a" d="M100-194c63 0 86 42 84 106H49c0 40 14 67 53 68 26 1 43-12 49-29l28 8c-11 28-37 45-77 45C44 4 14-33 15-96c1-61 26-98 85-98zm52 81c6-60-76-77-97-28-3 7-6 17-6 28h103" id="K"/><path fill="#3a414a" d="M24 0v-261h32V0H24" id="L"/><g id="a"><use transform="matrix(0.06172839506172839,0,0,0.06172839506172839,0,0)" xlink:href="#H"/><use transform="matrix(0.06172839506172839,0,0,0.06172839506172839,15.987654320987653,0)" xlink:href="#I"/><use transform="matrix(0.06172839506172839,0,0,0.06172839506172839,28.333333333333332,0)" xlink:href="#J"/><use transform="matrix(0.06172839506172839,0,0,0.06172839506172839,46.79012345679012,0)" xlink:href="#K"/><use transform="matrix(0.06172839506172839,0,0,0.06172839506172839,59.1358024691358,0)" xlink:href="#L"/></g><path fill="#3a414a" d="M194 0L95-120 63-95V0H30v-248h33v124l119-124h40L117-140 236 0h-42" id="M"/><use transform="matrix(0.06172839506172839,0,0,0.06172839506172839,0,0)" xlink:href="#M" id="b"/><path fill="#3a414a" d="M140-251c81 0 123 46 123 126C263-46 219 4 140 4 59 4 17-45 17-125s42-126 123-126zm0 227c63 0 89-41 89-101s-29-99-89-99c-61 0-89 39-89 99S79-25 140-24" id="N"/><path fill="#3a414a" d="M115-194c55 1 70 41 70 98S169 2 115 4C84 4 66-9 55-30l1 105H24l-1-265h31l2 30c10-21 28-34 59-34zm-8 174c40 0 45-34 45-75s-6-73-45-74c-42 0-51 32-51 76 0 43 10 73 51 73" id="O"/><path fill="#3a414a" d="M114-163C36-179 61-72 57 0H25l-1-190h30c1 12-1 29 2 39 6-27 23-49 58-41v29" id="P"/><path fill="#3a414a" d="M59-47c-2 24 18 29 38 22v24C64 9 27 4 27-40v-127H5v-23h24l9-43h21v43h35v23H59v120" id="Q"/><path fill="#3a414a" d="M100-194c62-1 85 37 85 99 1 63-27 99-86 99S16-35 15-95c0-66 28-99 85-99zM99-20c44 1 53-31 53-75 0-43-8-75-51-75s-53 32-53 75 10 74 51 75" id="R"/><path fill="#3a414a" d="M0 4l72-265h28L28 4H0" id="S"/><path fill="#3a414a" d="M160-131c35 5 61 23 61 61C221 17 115-2 30 0v-248c76 3 177-17 177 60 0 33-19 50-47 57zm-97-11c50-1 110 9 110-42 0-47-63-36-110-37v79zm0 115c55-2 124 14 124-45 0-56-70-42-124-44v89" id="T"/><path fill="#3a414a" d="M84 4C-5 8 30-112 23-190h32v120c0 31 7 50 39 49 72-2 45-101 50-169h31l1 190h-30c-1-10 1-25-2-33-11 22-28 36-60 37" id="U"/><path fill="#3a414a" d="M24-231v-30h32v30H24zM24 0v-190h32V0H24" id="V"/><path fill="#3a414a" d="M85-194c31 0 48 13 60 33l-1-100h32l1 261h-30c-2-10 0-23-3-31C134-8 116 4 85 4 32 4 16-35 15-94c0-66 23-100 70-100zm9 24c-40 0-46 34-46 75 0 40 6 74 45 74 42 0 51-32 51-76 0-42-9-74-50-73" id="W"/><g id="c"><use transform="matrix(0.06172839506172839,0,0,0.06172839506172839,0,0)" xlink:href="#N"/><use transform="matrix(0.06172839506172839,0,0,0.06172839506172839,17.28395061728395,0)" xlink:href="#O"/><use transform="matrix(0.06172839506172839,0,0,0.06172839506172839,29.629629629629626,0)" xlink:href="#K"/><use transform="matrix(0.06172839506172839,0,0,0.06172839506172839,41.9753086419753,0)" xlink:href="#P"/><use transform="matrix(0.06172839506172839,0,0,0.06172839506172839,49.32098765432098,0)" xlink:href="#I"/><use transform="matrix(0.06172839506172839,0,0,0.06172839506172839,61.66666666666666,0)" xlink:href="#Q"/><use transform="matrix(0.06172839506172839,0,0,0.06172839506172839,67.83950617283949,0)" xlink:href="#R"/><use transform="matrix(0.06172839506172839,0,0,0.06172839506172839,80.18518518518518,0)" xlink:href="#P"/><use transform="matrix(0.06172839506172839,0,0,0.06172839506172839,87.53086419753086,0)" xlink:href="#S"/><use transform="matrix(0.06172839506172839,0,0,0.06172839506172839,93.7037037037037,0)" xlink:href="#T"/><use transform="matrix(0.06172839506172839,0,0,0.06172839506172839,108.5185185185185,0)" xlink:href="#U"/><use transform="matrix(0.06172839506172839,0,0,0.06172839506172839,120.86419753086419,0)" xlink:href="#V"/><use transform="matrix(0.06172839506172839,0,0,0.06172839506172839,125.74074074074073,0)" xlink:href="#L"/><use transform="matrix(0.06172839506172839,0,0,0.06172839506172839,130.61728395061726,0)" xlink:href="#W"/><use transform="matrix(0.06172839506172839,0,0,0.06172839506172839,142.96296296296293,0)" xlink:href="#K"/><use transform="matrix(0.06172839506172839,0,0,0.06172839506172839,155.3086419753086,0)" xlink:href="#P"/></g><path fill="#3a414a" d="M115-194c53 0 69 39 70 98 0 66-23 100-70 100C84 3 66-7 56-30L54 0H23l1-261h32v101c10-23 28-34 59-34zm-8 174c40 0 45-34 45-75 0-40-5-75-45-74-42 0-51 32-51 76 0 43 10 73 51 73" id="X"/><path fill="#3a414a" d="M117-194c89-4 53 116 60 194h-32v-121c0-31-8-49-39-48C34-167 62-67 57 0H25l-1-190h30c1 10-1 24 2 32 11-22 29-35 61-36" id="Y"/><path fill="#3a414a" d="M135-143c-3-34-86-38-87 0 15 53 115 12 119 90S17 21 10-45l28-5c4 36 97 45 98 0-10-56-113-15-118-90-4-57 82-63 122-42 12 7 21 19 24 35" id="Z"/><g id="d"><use transform="matrix(0.06172839506172839,0,0,0.06172839506172839,0,0)" xlink:href="#M"/><use transform="matrix(0.06172839506172839,0,0,0.06172839506172839,14.814814814814813,0)" xlink:href="#U"/><use transform="matrix(0.06172839506172839,0,0,0.06172839506172839,27.160493827160494,0)" xlink:href="#X"/><use transform="matrix(0.06172839506172839,0,0,0.06172839506172839,39.50617283950617,0)" xlink:href="#K"/><use transform="matrix(0.06172839506172839,0,0,0.06172839506172839,51.85185185185185,0)" xlink:href="#P"/><use transform="matrix(0.06172839506172839,0,0,0.06172839506172839,59.197530864197525,0)" xlink:href="#Y"/><use transform="matrix(0.06172839506172839,0,0,0.06172839506172839,71.5432098765432,0)" xlink:href="#K"/><use transform="matrix(0.06172839506172839,0,0,0.06172839506172839,83.88888888888889,0)" xlink:href="#Q"/><use transform="matrix(0.06172839506172839,0,0,0.06172839506172839,90.06172839506172,0)" xlink:href="#K"/><use transform="matrix(0.06172839506172839,0,0,0.06172839506172839,102.4074074074074,0)" xlink:href="#Z"/></g><g id="e"><use transform="matrix(0.06172839506172839,0,0,0.06172839506172839,0,0)" xlink:href="#H"/><use transform="matrix(0.06172839506172839,0,0,0.06172839506172839,15.987654320987653,0)" xlink:href="#L"/><use transform="matrix(0.06172839506172839,0,0,0.06172839506172839,20.864197530864196,0)" xlink:href="#U"/><use transform="matrix(0.06172839506172839,0,0,0.06172839506172839,33.20987654320987,0)" xlink:href="#Z"/><use transform="matrix(0.06172839506172839,0,0,0.06172839506172839,44.32098765432099,0)" xlink:href="#Q"/><use transform="matrix(0.06172839506172839,0,0,0.06172839506172839,50.49382716049383,0)" xlink:href="#K"/><use transform="matrix(0.06172839506172839,0,0,0.06172839506172839,62.839506172839506,0)" xlink:href="#P"/></g><path fill="#3a414a" d="M190 0L58-211 59 0H30v-248h39L202-35l-2-213h31V0h-41" id="aa"/><g id="f"><use transform="matrix(0.06172839506172839,0,0,0.06172839506172839,0,0)" xlink:href="#aa"/><use transform="matrix(0.06172839506172839,0,0,0.06172839506172839,15.987654320987653,0)" xlink:href="#R"/><use transform="matrix(0.06172839506172839,0,0,0.06172839506172839,28.333333333333332,0)" xlink:href="#W"/><use transform="matrix(0.06172839506172839,0,0,0.06172839506172839,40.67901234567901,0)" xlink:href="#K"/></g><path fill="#3a414a" d="M240 0l2-218c-23 76-54 145-80 218h-23L58-218 59 0H30v-248h44l77 211c21-75 51-140 76-211h43V0h-30" id="ab"/><path fill="#3a414a" d="M108 0H70L1-190h34L89-25l56-165h34" id="ac"/><g id="g"><use transform="matrix(0.06172839506172839,0,0,0.06172839506172839,0,0)" xlink:href="#ab"/><use transform="matrix(0.06172839506172839,0,0,0.06172839506172839,18.456790123456788,0)" xlink:href="#I"/><use transform="matrix(0.06172839506172839,0,0,0.06172839506172839,30.80246913580247,0)" xlink:href="#ac"/><use transform="matrix(0.06172839506172839,0,0,0.06172839506172839,41.91358024691358,0)" xlink:href="#K"/><use transform="matrix(0.06172839506172839,0,0,0.06172839506172839,54.25925925925926,0)" xlink:href="#Y"/></g><path fill="#3a414a" d="M233-177c-1 41-23 64-60 70L243 0h-38l-65-103H63V0H30v-248c88 3 205-21 203 71zM63-129c60-2 137 13 137-47 0-61-80-42-137-45v92" id="ad"/><path fill="#3a414a" d="M179-190L93 31C79 59 56 82 12 73V49c39 6 53-20 64-50L1-190h34L92-34l54-156h33" id="ae"/><g id="h"><use transform="matrix(0.06172839506172839,0,0,0.06172839506172839,0,0)" xlink:href="#ad"/><use transform="matrix(0.06172839506172839,0,0,0.06172839506172839,15.987654320987653,0)" xlink:href="#K"/><use transform="matrix(0.06172839506172839,0,0,0.06172839506172839,28.333333333333332,0)" xlink:href="#O"/><use transform="matrix(0.06172839506172839,0,0,0.06172839506172839,40.67901234567901,0)" xlink:href="#R"/><use transform="matrix(0.06172839506172839,0,0,0.06172839506172839,53.02469135802469,0)" xlink:href="#Z"/><use transform="matrix(0.06172839506172839,0,0,0.06172839506172839,64.1358024691358,0)" xlink:href="#V"/><use transform="matrix(0.06172839506172839,0,0,0.06172839506172839,69.01234567901234,0)" xlink:href="#Q"/><use transform="matrix(0.06172839506172839,0,0,0.06172839506172839,75.18518518518518,0)" xlink:href="#R"/><use transform="matrix(0.06172839506172839,0,0,0.06172839506172839,87.53086419753086,0)" xlink:href="#P"/><use transform="matrix(0.06172839506172839,0,0,0.06172839506172839,94.87654320987654,0)" xlink:href="#ae"/></g><path fill="#3a414a" d="M177-190C167-65 218 103 67 71c-23-6-38-20-44-43l32-5c15 47 100 32 89-28v-30C133-14 115 1 83 1 29 1 15-40 15-95c0-56 16-97 71-98 29-1 48 16 59 35 1-10 0-23 2-32h30zM94-22c36 0 50-32 50-73 0-42-14-75-50-75-39 0-46 34-46 75s6 73 46 73" id="af"/><g id="i"><use transform="matrix(0.06172839506172839,0,0,0.06172839506172839,0,0)" xlink:href="#ab"/><use transform="matrix(0.06172839506172839,0,0,0.06172839506172839,18.456790123456788,0)" xlink:href="#I"/><use transform="matrix(0.06172839506172839,0,0,0.06172839506172839,30.80246913580247,0)" xlink:href="#Y"/><use transform="matrix(0.06172839506172839,0,0,0.06172839506172839,43.148148148148145,0)" xlink:href="#I"/><use transform="matrix(0.06172839506172839,0,0,0.06172839506172839,55.49382716049382,0)" xlink:href="#af"/><use transform="matrix(0.06172839506172839,0,0,0.06172839506172839,67.8395061728395,0)" xlink:href="#K"/><use transform="matrix(0.06172839506172839,0,0,0.06172839506172839,80.18518518518519,0)" xlink:href="#P"/></g><g id="j"><use transform="matrix(0.049382716049382706,0,0,0.049382716049382706,0,0)" xlink:href="#N"/><use transform="matrix(0.049382716049382706,0,0,0.049382716049382706,13.827160493827158,0)" xlink:href="#O"/><use transform="matrix(0.049382716049382706,0,0,0.049382716049382706,23.7037037037037,0)" xlink:href="#Q"/><use transform="matrix(0.049382716049382706,0,0,0.049382716049382706,28.64197530864197,0)" xlink:href="#V"/><use transform="matrix(0.049382716049382706,0,0,0.049382716049382706,32.5432098765432,0)" xlink:href="#R"/><use transform="matrix(0.049382716049382706,0,0,0.049382716049382706,42.419753086419746,0)" xlink:href="#Y"/><use transform="matrix(0.049382716049382706,0,0,0.049382716049382706,52.29629629629628,0)" xlink:href="#I"/><use transform="matrix(0.049382716049382706,0,0,0.049382716049382706,62.17283950617284,0)" xlink:href="#L"/></g><g id="k"><use transform="matrix(0.049382716049382706,0,0,0.049382716049382706,0,0)" xlink:href="#X"/><use transform="matrix(0.049382716049382706,0,0,0.049382716049382706,9.87654320987654,0)" xlink:href="#U"/><use transform="matrix(0.049382716049382706,0,0,0.049382716049382706,19.75308641975308,0)" xlink:href="#Q"/></g><g id="l"><use transform="matrix(0.049382716049382706,0,0,0.049382716049382706,0,0)" xlink:href="#Z"/><use transform="matrix(0.049382716049382706,0,0,0.049382716049382706,8.888888888888888,0)" xlink:href="#Q"/><use transform="matrix(0.049382716049382706,0,0,0.049382716049382706,13.827160493827158,0)" xlink:href="#P"/><use transform="matrix(0.049382716049382706,0,0,0.049382716049382706,19.7037037037037,0)" xlink:href="#R"/><use transform="matrix(0.049382716049382706,0,0,0.049382716049382706,29.58024691358024,0)" xlink:href="#Y"/><use transform="matrix(0.049382716049382706,0,0,0.049382716049382706,39.456790123456784,0)" xlink:href="#af"/><use transform="matrix(0.049382716049382706,0,0,0.049382716049382706,49.33333333333333,0)" xlink:href="#L"/><use transform="matrix(0.049382716049382706,0,0,0.049382716049382706,53.234567901234556,0)" xlink:href="#ae"/></g><path fill="#3a414a" d="M96-169c-40 0-48 33-48 73s9 75 48 75c24 0 41-14 43-38l32 2c-6 37-31 61-74 61-59 0-76-41-82-99-10-93 101-131 147-64 4 7 5 14 7 22l-32 3c-4-21-16-35-41-35" id="ag"/><g id="m"><use transform="matrix(0.049382716049382706,0,0,0.049382716049382706,0,0)" xlink:href="#P"/><use transform="matrix(0.049382716049382706,0,0,0.049382716049382706,5.876543209876542,0)" xlink:href="#K"/><use transform="matrix(0.049382716049382706,0,0,0.049382716049382706,15.75308641975308,0)" xlink:href="#ag"/><use transform="matrix(0.049382716049382706,0,0,0.049382716049382706,24.641975308641968,0)" xlink:href="#R"/><use transform="matrix(0.049382716049382706,0,0,0.049382716049382706,34.518518518518505,0)" xlink:href="#J"/><use transform="matrix(0.049382716049382706,0,0,0.049382716049382706,49.283950617283935,0)" xlink:href="#J"/><use transform="matrix(0.049382716049382706,0,0,0.049382716049382706,64.04938271604937,0)" xlink:href="#K"/><use transform="matrix(0.049382716049382706,0,0,0.049382716049382706,73.92592592592591,0)" xlink:href="#Y"/><use transform="matrix(0.049382716049382706,0,0,0.049382716049382706,83.80246913580245,0)" xlink:href="#W"/><use transform="matrix(0.049382716049382706,0,0,0.049382716049382706,93.679012345679,0)" xlink:href="#K"/><use transform="matrix(0.049382716049382706,0,0,0.049382716049382706,103.55555555555553,0)" xlink:href="#W"/></g><path fill="#333" d="M182-130c37 4 62 22 62 59C244 23 116-4 24 0v-248c84 5 203-23 205 63 0 31-19 50-47 55zM76-148c40-3 101 13 101-30 0-44-60-28-101-31v61zm0 110c48-3 116 14 116-37 0-48-69-32-116-35v72" id="ah"/><path fill="#333" d="M85 4C-2 5 27-109 22-190h50c7 57-23 150 33 157 60-5 35-97 40-157h50l1 190h-47c-2-12 1-28-3-38-12 25-28 42-61 42" id="ai"/><path fill="#333" d="M25-224v-37h50v37H25zM25 0v-190h50V0H25" id="aj"/><path fill="#333" d="M25 0v-261h50V0H25" id="ak"/><path fill="#333" d="M88-194c31-1 46 15 58 34l-1-101h50l1 261h-48c-2-10 0-23-3-31C134-8 116 4 84 4 32 4 16-41 15-95c0-56 19-97 73-99zm17 164c33 0 40-30 41-66 1-37-9-64-41-64s-38 30-39 65c0 43 13 65 39 65" id="al"/><g id="n"><use transform="matrix(0.04938271604938272,0,0,0.04938271604938272,0,0)" xlink:href="#ah"/><use transform="matrix(0.04938271604938272,0,0,0.04938271604938272,12.790123456790125,0)" xlink:href="#ai"/><use transform="matrix(0.04938271604938272,0,0,0.04938271604938272,23.60493827160494,0)" xlink:href="#aj"/><use transform="matrix(0.04938271604938272,0,0,0.04938271604938272,28.543209876543212,0)" xlink:href="#ak"/><use transform="matrix(0.04938271604938272,0,0,0.04938271604938272,33.48148148148148,0)" xlink:href="#al"/></g><path fill="#333" d="M67-125c0 53 21 87 73 88 37 1 54-22 65-47l45 17C233-25 199 4 140 4 58 4 20-42 15-125 8-235 124-281 211-232c18 10 29 29 36 50l-46 12c-8-25-30-41-62-41-52 0-71 34-72 86" id="am"/><path fill="#333" d="M133-34C117-15 103 5 69 4 32 3 11-16 11-54c-1-60 55-63 116-61 1-26-3-47-28-47-18 1-26 9-28 27l-52-2c7-38 36-58 82-57s74 22 75 68l1 82c-1 14 12 18 25 15v27c-30 8-71 5-69-32zm-48 3c29 0 43-24 42-57-32 0-66-3-65 30 0 17 8 27 23 27" id="an"/><path fill="#333" d="M220-157c-53 9-28 100-34 157h-49v-107c1-27-5-49-29-50C55-147 81-57 75 0H25l-1-190h47c2 12-1 28 3 38 10-53 101-56 108 0 13-22 24-43 59-42 82 1 51 116 57 194h-49v-107c-1-25-5-48-29-50" id="ao"/><path fill="#333" d="M185-48c-13 30-37 53-82 52C43 2 14-33 14-96s30-98 90-98c62 0 83 45 84 108H66c0 31 8 55 39 56 18 0 30-7 34-22zm-45-69c5-46-57-63-70-21-2 6-4 13-4 21h74" id="ap"/><g id="o"><use transform="matrix(0.04938271604938272,0,0,0.04938271604938272,0,0)" xlink:href="#am"/><use transform="matrix(0.04938271604938272,0,0,0.04938271604938272,12.790123456790125,0)" xlink:href="#an"/><use transform="matrix(0.04938271604938272,0,0,0.04938271604938272,22.66666666666667,0)" xlink:href="#ao"/><use transform="matrix(0.04938271604938272,0,0,0.04938271604938272,38.46913580246914,0)" xlink:href="#ap"/><use transform="matrix(0.04938271604938272,0,0,0.04938271604938272,48.345679012345684,0)" xlink:href="#ak"/></g><path fill="#333" d="M135-194c53 0 70 44 70 98 0 56-19 98-73 100-31 1-45-17-59-34 3 33 2 69 2 105H25l-1-265h48c2 10 0 23 3 31 11-24 29-35 60-35zM114-30c33 0 39-31 40-66 0-38-9-64-40-64-56 0-55 130 0 130" id="aq"/><path fill="#333" d="M190-63c-7 42-38 67-86 67-59 0-84-38-90-98-12-110 154-137 174-36l-49 2c-2-19-15-32-35-32-30 0-35 28-38 64-6 74 65 87 74 30" id="ar"/><path fill="#333" d="M115-3C79 11 28 4 28-45v-112H4v-33h27l15-45h31v45h36v33H77v99c-1 23 16 31 38 25v30" id="as"/><path fill="#333" d="M110-194c64 0 96 36 96 99 0 64-35 99-97 99-61 0-95-36-95-99 0-62 34-99 96-99zm-1 164c35 0 45-28 45-65 0-40-10-65-43-65-34 0-45 26-45 65 0 36 10 65 43 65" id="at"/><path fill="#333" d="M135-194c87-1 58 113 63 194h-50c-7-57 23-157-34-157-59 0-34 97-39 157H25l-1-190h47c2 12-1 28 3 38 12-26 28-41 61-42" id="au"/><g id="p"><use transform="matrix(0.04938271604938272,0,0,0.04938271604938272,0,0)" xlink:href="#an"/><use transform="matrix(0.04938271604938272,0,0,0.04938271604938272,9.876543209876544,0)" xlink:href="#aq"/><use transform="matrix(0.04938271604938272,0,0,0.04938271604938272,20.69135802469136,0)" xlink:href="#aq"/><use transform="matrix(0.04938271604938272,0,0,0.04938271604938272,31.506172839506174,0)" xlink:href="#ak"/><use transform="matrix(0.04938271604938272,0,0,0.04938271604938272,36.44444444444445,0)" xlink:href="#aj"/><use transform="matrix(0.04938271604938272,0,0,0.04938271604938272,41.38271604938272,0)" xlink:href="#ar"/><use transform="matrix(0.04938271604938272,0,0,0.04938271604938272,51.25925925925927,0)" xlink:href="#an"/><use transform="matrix(0.04938271604938272,0,0,0.04938271604938272,61.13580246913581,0)" xlink:href="#as"/><use transform="matrix(0.04938271604938272,0,0,0.04938271604938272,67.01234567901236,0)" xlink:href="#aj"/><use transform="matrix(0.04938271604938272,0,0,0.04938271604938272,71.95061728395063,0)" xlink:href="#at"/><use transform="matrix(0.04938271604938272,0,0,0.04938271604938272,82.76543209876544,0)" xlink:href="#au"/></g><path fill="#333" d="M24-248c93 1 206-16 204 79-1 75-69 88-152 82V0H24v-248zm52 121c47 0 100 7 100-41 0-47-54-39-100-39v80" id="av"/><path fill="#333" d="M4 7l51-268h42L46 7H4" id="aw"/><path fill="#333" d="M137-138c1-29-70-34-71-4 15 46 118 7 119 86 1 83-164 76-172 9l43-7c4 19 20 25 44 25 33 8 57-30 24-41C81-84 22-81 20-136c-2-80 154-74 161-7" id="ax"/><path fill="#333" d="M114-157C55-157 80-60 75 0H25v-261h50l-1 109c12-26 28-41 61-42 86-1 58 113 63 194h-50c-7-57 23-157-34-157" id="ay"/><g id="q"><use transform="matrix(0.04938271604938272,0,0,0.04938271604938272,0,0)" xlink:href="#av"/><use transform="matrix(0.04938271604938272,0,0,0.04938271604938272,11.851851851851853,0)" xlink:href="#ai"/><use transform="matrix(0.04938271604938272,0,0,0.04938271604938272,22.666666666666668,0)" xlink:href="#ak"/><use transform="matrix(0.04938271604938272,0,0,0.04938271604938272,27.60493827160494,0)" xlink:href="#ak"/><use transform="matrix(0.04938271604938272,0,0,0.04938271604938272,32.543209876543216,0)" xlink:href="#aw"/><use transform="matrix(0.04938271604938272,0,0,0.04938271604938272,37.48148148148149,0)" xlink:href="#aq"/><use transform="matrix(0.04938271604938272,0,0,0.04938271604938272,48.296296296296305,0)" xlink:href="#ai"/><use transform="matrix(0.04938271604938272,0,0,0.04938271604938272,59.111111111111114,0)" xlink:href="#ax"/><use transform="matrix(0.04938271604938272,0,0,0.04938271604938272,68.98765432098767,0)" xlink:href="#ay"/></g><g id="r"><use transform="matrix(0.04938271604938272,0,0,0.04938271604938272,0,0)" xlink:href="#an"/><use transform="matrix(0.04938271604938272,0,0,0.04938271604938272,9.876543209876544,0)" xlink:href="#aq"/><use transform="matrix(0.04938271604938272,0,0,0.04938271604938272,20.69135802469136,0)" xlink:href="#aq"/><use transform="matrix(0.04938271604938272,0,0,0.04938271604938272,31.506172839506174,0)" xlink:href="#ak"/><use transform="matrix(0.04938271604938272,0,0,0.04938271604938272,36.44444444444445,0)" xlink:href="#aj"/><use transform="matrix(0.04938271604938272,0,0,0.04938271604938272,41.38271604938272,0)" xlink:href="#ar"/><use transform="matrix(0.04938271604938272,0,0,0.04938271604938272,51.25925925925927,0)" xlink:href="#an"/><use transform="matrix(0.04938271604938272,0,0,0.04938271604938272,61.13580246913581,0)" xlink:href="#as"/><use transform="matrix(0.04938271604938272,0,0,0.04938271604938272,67.01234567901236,0)" xlink:href="#aj"/><use transform="matrix(0.04938271604938272,0,0,0.04938271604938272,71.95061728395063,0)" xlink:href="#at"/><use transform="matrix(0.04938271604938272,0,0,0.04938271604938272,82.76543209876544,0)" xlink:href="#au"/></g><path fill="#333" d="M135-150c-39-12-60 13-60 57V0H25l-1-190h47c2 13-1 29 3 40 6-28 27-53 61-41v41" id="az"/><g id="s"><use transform="matrix(0.04938271604938272,0,0,0.04938271604938272,0,0)" xlink:href="#ar"/><use transform="matrix(0.04938271604938272,0,0,0.04938271604938272,9.876543209876544,0)" xlink:href="#at"/><use transform="matrix(0.04938271604938272,0,0,0.04938271604938272,20.69135802469136,0)" xlink:href="#au"/><use transform="matrix(0.04938271604938272,0,0,0.04938271604938272,31.506172839506174,0)" xlink:href="#as"/><use transform="matrix(0.04938271604938272,0,0,0.04938271604938272,37.38271604938272,0)" xlink:href="#an"/><use transform="matrix(0.04938271604938272,0,0,0.04938271604938272,47.25925925925927,0)" xlink:href="#aj"/><use transform="matrix(0.04938271604938272,0,0,0.04938271604938272,52.19753086419754,0)" xlink:href="#au"/><use transform="matrix(0.04938271604938272,0,0,0.04938271604938272,63.01234567901235,0)" xlink:href="#ap"/><use transform="matrix(0.04938271604938272,0,0,0.04938271604938272,72.8888888888889,0)" xlink:href="#az"/></g><g id="t"><use transform="matrix(0.06172839506172839,0,0,0.06172839506172839,0,0)" xlink:href="#H"/><use transform="matrix(0.06172839506172839,0,0,0.06172839506172839,15.987654320987653,0)" xlink:href="#R"/><use transform="matrix(0.06172839506172839,0,0,0.06172839506172839,28.333333333333332,0)" xlink:href="#Y"/><use transform="matrix(0.06172839506172839,0,0,0.06172839506172839,40.67901234567901,0)" xlink:href="#Q"/><use transform="matrix(0.06172839506172839,0,0,0.06172839506172839,46.851851851851855,0)" xlink:href="#I"/><use transform="matrix(0.06172839506172839,0,0,0.06172839506172839,59.19753086419753,0)" xlink:href="#V"/><use transform="matrix(0.06172839506172839,0,0,0.06172839506172839,64.07407407407408,0)" xlink:href="#Y"/><use transform="matrix(0.06172839506172839,0,0,0.06172839506172839,76.41975308641976,0)" xlink:href="#K"/><use transform="matrix(0.06172839506172839,0,0,0.06172839506172839,88.76543209876544,0)" xlink:href="#P"/></g><g id="u"><use transform="matrix(0.06172839506172839,0,0,0.06172839506172839,0,0)" xlink:href="#ad"/><use transform="matrix(0.06172839506172839,0,0,0.06172839506172839,15.987654320987653,0)" xlink:href="#K"/><use transform="matrix(0.06172839506172839,0,0,0.06172839506172839,28.333333333333332,0)" xlink:href="#af"/><use transform="matrix(0.06172839506172839,0,0,0.06172839506172839,40.67901234567901,0)" xlink:href="#V"/><use transform="matrix(0.06172839506172839,0,0,0.06172839506172839,45.55555555555556,0)" xlink:href="#Z"/><use transform="matrix(0.06172839506172839,0,0,0.06172839506172839,56.66666666666667,0)" xlink:href="#Q"/><use transform="matrix(0.06172839506172839,0,0,0.06172839506172839,62.83950617283951,0)" xlink:href="#P"/><use transform="matrix(0.06172839506172839,0,0,0.06172839506172839,70.18518518518519,0)" xlink:href="#ae"/></g><path fill="#3a414a" d="M127-220V0H93v-220H8v-28h204v28h-85" id="aA"/><path fill="#3a414a" d="M106-169C34-169 62-67 57 0H25v-261h32l-1 103c12-21 28-36 61-36 89 0 53 116 60 194h-32v-121c2-32-8-49-39-48" id="aB"/><g id="v"><use transform="matrix(0.06172839506172839,0,0,0.06172839506172839,0,0)" xlink:href="#aA"/><use transform="matrix(0.06172839506172839,0,0,0.06172839506172839,13.518518518518517,0)" xlink:href="#aB"/><use transform="matrix(0.06172839506172839,0,0,0.06172839506172839,25.864197530864196,0)" xlink:href="#K"/></g><path fill="#3a414a" d="M33 0v-248h34V0H33" id="aC"/><g id="w"><use transform="matrix(0.06172839506172839,0,0,0.06172839506172839,0,0)" xlink:href="#aC"/><use transform="matrix(0.06172839506172839,0,0,0.06172839506172839,6.172839506172839,0)" xlink:href="#Y"/><use transform="matrix(0.06172839506172839,0,0,0.06172839506172839,18.51851851851852,0)" xlink:href="#Q"/><use transform="matrix(0.06172839506172839,0,0,0.06172839506172839,24.691358024691358,0)" xlink:href="#K"/><use transform="matrix(0.06172839506172839,0,0,0.06172839506172839,37.03703703703704,0)" xlink:href="#P"/><use transform="matrix(0.06172839506172839,0,0,0.06172839506172839,44.382716049382715,0)" xlink:href="#Y"/><use transform="matrix(0.06172839506172839,0,0,0.06172839506172839,56.72839506172839,0)" xlink:href="#K"/><use transform="matrix(0.06172839506172839,0,0,0.06172839506172839,69.07407407407408,0)" xlink:href="#Q"/></g><g id="x"><use transform="matrix(0.04938271604938272,0,0,0.04938271604938272,0,0)" xlink:href="#ay"/><use transform="matrix(0.04938271604938272,0,0,0.04938271604938272,10.814814814814815,0)" xlink:href="#as"/><use transform="matrix(0.04938271604938272,0,0,0.04938271604938272,16.691358024691358,0)" xlink:href="#as"/><use transform="matrix(0.04938271604938272,0,0,0.04938271604938272,22.567901234567902,0)" xlink:href="#aq"/><use transform="matrix(0.04938271604938272,0,0,0.04938271604938272,33.382716049382715,0)" xlink:href="#ax"/></g><g id="y"><use transform="matrix(0.049382716049382706,0,0,0.049382716049382706,0,0)" xlink:href="#H"/><use transform="matrix(0.049382716049382706,0,0,0.049382716049382706,12.790123456790122,0)" xlink:href="#R"/><use transform="matrix(0.049382716049382706,0,0,0.049382716049382706,22.666666666666664,0)" xlink:href="#U"/><use transform="matrix(0.049382716049382706,0,0,0.049382716049382706,32.5432098765432,0)" xlink:href="#L"/><use transform="matrix(0.049382716049382706,0,0,0.049382716049382706,36.444444444444436,0)" xlink:href="#W"/></g><g id="z"><use transform="matrix(0.049382716049382706,0,0,0.049382716049382706,0,0)" xlink:href="#X"/><use transform="matrix(0.049382716049382706,0,0,0.049382716049382706,9.87654320987654,0)" xlink:href="#K"/></g><g id="A"><use transform="matrix(0.049382716049382706,0,0,0.049382716049382706,0,0)" xlink:href="#O"/><use transform="matrix(0.049382716049382706,0,0,0.049382716049382706,9.87654320987654,0)" xlink:href="#P"/><use transform="matrix(0.049382716049382706,0,0,0.049382716049382706,15.75308641975308,0)" xlink:href="#R"/><use transform="matrix(0.049382716049382706,0,0,0.049382716049382706,25.629629629629626,0)" xlink:href="#ac"/><use transform="matrix(0.049382716049382706,0,0,0.049382716049382706,34.51851851851851,0)" xlink:href="#V"/><use transform="matrix(0.049382716049382706,0,0,0.049382716049382706,38.419753086419746,0)" xlink:href="#W"/><use transform="matrix(0.049382716049382706,0,0,0.049382716049382706,48.29629629629629,0)" xlink:href="#K"/><use transform="matrix(0.049382716049382706,0,0,0.049382716049382706,58.17283950617284,0)" xlink:href="#W"/></g><g id="B"><use transform="matrix(0.049382716049382706,0,0,0.049382716049382706,0,0)" xlink:href="#X"/><use transform="matrix(0.049382716049382706,0,0,0.049382716049382706,9.87654320987654,0)" xlink:href="#ae"/></g><g id="C"><use transform="matrix(0.049382716049382706,0,0,0.049382716049382706,0,0)" xlink:href="#Q"/><use transform="matrix(0.049382716049382706,0,0,0.049382716049382706,4.93827160493827,0)" xlink:href="#aB"/><use transform="matrix(0.049382716049382706,0,0,0.049382716049382706,14.814814814814811,0)" xlink:href="#K"/></g><g id="D"><use transform="matrix(0.049382716049382706,0,0,0.049382716049382706,0,0)" xlink:href="#ag"/><use transform="matrix(0.049382716049382706,0,0,0.049382716049382706,8.888888888888888,0)" xlink:href="#L"/><use transform="matrix(0.049382716049382706,0,0,0.049382716049382706,12.790123456790122,0)" xlink:href="#U"/><use transform="matrix(0.049382716049382706,0,0,0.049382716049382706,22.666666666666664,0)" xlink:href="#Z"/><use transform="matrix(0.049382716049382706,0,0,0.049382716049382706,31.55555555555555,0)" xlink:href="#Q"/><use transform="matrix(0.049382716049382706,0,0,0.049382716049382706,36.49382716049382,0)" xlink:href="#K"/><use transform="matrix(0.049382716049382706,0,0,0.049382716049382706,46.37037037037037,0)" xlink:href="#P"/></g><path fill="#3a414a" d="M87 75C49 33 22-17 22-94c0-76 28-126 65-167h31c-38 41-64 92-64 168S80 34 118 75H87" id="aD"/><path fill="#3a414a" d="M68-38c1 34 0 65-14 84H32c9-13 17-26 17-46H33v-38h35" id="aE"/><g id="E"><use transform="matrix(0.049382716049382706,0,0,0.049382716049382706,0,0)" xlink:href="#aD"/><use transform="matrix(0.049382716049382706,0,0,0.049382716049382706,5.876543209876542,0)" xlink:href="#V"/><use transform="matrix(0.049382716049382706,0,0,0.049382716049382706,9.777777777777775,0)" xlink:href="#K"/><use transform="matrix(0.049382716049382706,0,0,0.049382716049382706,19.654320987654316,0)" xlink:href="#aE"/></g><g id="F"><use transform="matrix(0.049382716049382706,0,0,0.049382716049382706,0,0)" xlink:href="#R"/><use transform="matrix(0.049382716049382706,0,0,0.049382716049382706,9.87654320987654,0)" xlink:href="#Y"/></g><path fill="#3a414a" d="M101-234c-31-9-42 10-38 44h38v23H63V0H32v-167H5v-23h27c-7-52 17-82 69-68v24" id="aF"/><path fill="#3a414a" d="M33-261c38 41 65 92 65 168S71 34 33 75H2C39 34 66-17 66-93S39-220 2-261h31" id="aG"/><g id="G"><use transform="matrix(0.049382716049382706,0,0,0.049382716049382706,0,0)" xlink:href="#N"/><use transform="matrix(0.049382716049382706,0,0,0.049382716049382706,13.827160493827158,0)" xlink:href="#O"/><use transform="matrix(0.049382716049382706,0,0,0.049382716049382706,23.7037037037037,0)" xlink:href="#K"/><use transform="matrix(0.049382716049382706,0,0,0.049382716049382706,33.58024691358024,0)" xlink:href="#Y"/><use transform="matrix(0.049382716049382706,0,0,0.049382716049382706,43.456790123456784,0)" xlink:href="#Z"/><use transform="matrix(0.049382716049382706,0,0,0.049382716049382706,52.34567901234567,0)" xlink:href="#aB"/><use transform="matrix(0.049382716049382706,0,0,0.049382716049382706,62.22222222222221,0)" xlink:href="#V"/><use transform="matrix(0.049382716049382706,0,0,0.049382716049382706,66.12345679012344,0)" xlink:href="#aF"/><use transform="matrix(0.049382716049382706,0,0,0.049382716049382706,71.0617283950617,0)" xlink:href="#Q"/><use transform="matrix(0.049382716049382706,0,0,0.049382716049382706,75.99999999999997,0)" xlink:href="#aG"/></g></defs></g></svg>