<svg xmlns="http://www.w3.org/2000/svg" xmlns:xlink="http://www.w3.org/1999/xlink" xmlns:lucid="lucid" width="1022"
     height="662">
    <g transform="translate(-58 -106)" lucid:page-tab-id="0_0">
        <path d="M0 0h1870.4v1323.2H0z" fill="#fff"/>
        <path d="M140 138c0-6.63 5.37-12 12-12h896c6.63 0 12 5.37 12 12v596c0 6.63-5.37 12-12 12H152c-6.63 0-12-5.37-12-12z"
              stroke="#666" stroke-width="2" fill="#fff"/>
        <path d="M742 232c0-6.63 5.37-12 12-12h256c6.63 0 12 5.37 12 12v264c0 6.63-5.37 12-12 12H754c-6.63 0-12-5.37-12-12z"
              stroke="#b2b2b2" stroke-width="2" fill="#fff"/>
        <path d="M180 332c0-6.63 5.37-12 12-12h296c6.63 0 12 5.37 12 12v36c0 6.63-5.37 12-12 12H192c-6.63 0-12-5.37-12-12z"
              stroke="#666" stroke-width="2" fill="#fff"/>
        <use xlink:href="#a" transform="matrix(1,0,0,1,185.0000000000001,325) translate(77.6 28.6)"/>
        <use xlink:href="#b" transform="matrix(1,0,0,1,185.0000000000001,325) translate(179.5 28.6)"/>
        <path d="M742 612c0-6.63 5.37-12 12-12h256c6.63 0 12 5.37 12 12v76c0 6.63-5.37 12-12 12H754c-6.63 0-12-5.37-12-12z"
              stroke="#666" stroke-width="2" fill="#fff"/>
        <use xlink:href="#c" transform="matrix(1,0,0,1,747,605) translate(62.625 48.6)"/>
        <use xlink:href="#d" transform="matrix(1,0,0,1,747,605) translate(119.47500000000001 48.6)"/>
        <use xlink:href="#e" transform="matrix(1,0,0,1,747,605) translate(136.47500000000002 48.6)"/>
        <path d="M440 709h320v39H440z" stroke="#000" stroke-opacity="0" stroke-width="2" fill="#fff" fill-opacity="0"/>
        <use xlink:href="#f" transform="matrix(1,0,0,1,445,714) translate(21.82499999999999 18.1)"/>
        <use xlink:href="#g" transform="matrix(1,0,0,1,445,714) translate(125.575 18.1)"/>
        <use xlink:href="#h" transform="matrix(1,0,0,1,445,714) translate(135.575 18.1)"/>
        <use xlink:href="#i" transform="matrix(1,0,0,1,445,714) translate(226.32500000000002 18.1)"/>
        <path d="M719 172c0-6.63 5.37-12 12-12h256c6.63 0 12 5.37 12 12v256c0 6.63-5.37 12-12 12H731c-6.63 0-12-5.37-12-12z"
              stroke="#666" stroke-width="2" fill="#fff"/>
        <path d="M883 598h-2v-15.2h2zm-51-59h51v22.2h-2V541h-51v-81.5h2z" fill="#666"/>
        <path d="M883 599h-2v-1.03h2zM835.64 458.5h-9.28l4.64-14.26z" fill="#666"/>
        <path d="M837 459.5h-12l6-18.5zm-9.26-2h6.52L831 447.47z" fill="#666"/>
        <use xlink:href="#j" transform="matrix(1,0,0,1,845.025,561.2) translate(0 14.4)"/>
        <path d="M772 414c0-3.3 2.7-6 6-6h168c3.3 0 6 2.7 6 6v16c0 3.3-2.7 6-6 6H778c-3.3 0-6-2.7-6-6z" stroke="#000"
              stroke-opacity="0" stroke-width="2" fill="#fff"/>
        <use xlink:href="#k" transform="matrix(1,0,0,1,772,408) translate(27.667499999999997 17.6)"/>
        <use xlink:href="#l" transform="matrix(1,0,0,1,772,408) translate(117.5675 17.6)"/>
        <path d="M839 456c0-3.3 2.7-6 6-6h168c3.3 0 6 2.7 6 6v42c0 3.3-2.7 6-6 6H845c-3.3 0-6-2.7-6-6z" stroke="#000"
              stroke-opacity="0" stroke-width="2" fill-opacity="0"/>
        <use xlink:href="#m" transform="matrix(1,0,0,1,844,455) translate(77.5 14.799999999999999)"/>
        <use xlink:href="#n" transform="matrix(1,0,0,1,844,455) translate(19.57345679012346 36.4)"/>
        <use xlink:href="#o" transform="matrix(1,0,0,1,844,455) translate(109.47345679012346 36.4)"/>
        <path d="M180 612c0-6.63 5.37-12 12-12h296c6.63 0 12 5.37 12 12v76c0 6.63-5.37 12-12 12H192c-6.63 0-12-5.37-12-12z"
              stroke="#666" stroke-width="2" fill="#fff"/>
        <use xlink:href="#a" transform="matrix(1,0,0,1,185.0000000000001,605) translate(68.6 48.6)"/>
        <use xlink:href="#e" transform="matrix(1,0,0,1,185.0000000000001,605) translate(170.5 48.6)"/>
        <path d="M752.73 399.33c-3.3 0-6-2.68-6-6V186c0-3.3 2.7-6 6-6h41.2c3.32 0 6 2.7 6 6v207.33c0 3.32-2.68 6-6 6z"
              stroke="#666" stroke-width="2" fill="#fff"/>
        <use xlink:href="#p"
             transform="matrix(6.123233995736766e-17,-1,1,6.123233995736766e-17,751.7333333333331,394.33333333333314) translate(23.98681640625 16.596484375)"/>
        <use xlink:href="#q"
             transform="matrix(6.123233995736766e-17,-1,1,6.123233995736766e-17,751.7333333333331,394.33333333333314) translate(73.07499999999999 34.6)"/>
        <path d="M740 650H637.14v-36.5" stroke="#666" stroke-width="2" fill="none"/>
        <path d="M741 651h-1.03v-2H741z" fill="#666"/>
        <path d="M637.14 598.24l4.64 14.27h-9.27z" stroke="#666" stroke-width="2" fill="#666"/>
        <use xlink:href="#r" transform="matrix(1,0,0,1,653.9739309480553,654.0000000000001) translate(0 14.4)"/>
        <path d="M180 252c0-6.63 5.37-12 12-12h296c6.63 0 12 5.37 12 12v36c0 6.63-5.37 12-12 12H192c-6.63 0-12-5.37-12-12z"
              stroke="#666" stroke-width="2" fill="#fff"/>
        <use xlink:href="#s" transform="matrix(1,0,0,1,185.0000000000001,245) translate(78.14999999999999 28.6)"/>
        <use xlink:href="#t" transform="matrix(1,0,0,1,185.0000000000001,245) translate(112.14999999999999 28.6)"/>
        <use xlink:href="#u" transform="matrix(1,0,0,1,185.0000000000001,245) translate(170.05 28.6)"/>
        <path d="M502 650h45.57v-27.07" stroke="#666" stroke-width="2" fill="none"/>
        <path d="M502.03 651H501v-2h1.03z" fill="#666"/>
        <path d="M547.57 607.67l4.63 14.26h-9.27z" stroke="#666" stroke-width="2" fill="#666"/>
        <use xlink:href="#v" transform="matrix(1,0,0,1,514.1721707582435,653.8197776295953) translate(0 14.4)"/>
        <path d="M341 598h-2v-68.7h2zm0-90.3h-2V399.5h2z" fill="#666"/>
        <path d="M341 599h-2v-1.03h2zM344.64 398.5h-9.28l4.64-14.26z" fill="#666"/>
        <path d="M346 399.5h-12l6-18.5zm-9.26-2h6.52L340 387.47z" fill="#666"/>
        <use xlink:href="#j" transform="matrix(1,0,0,1,303.0250000000001,507.71476793248934) translate(0 14.4)"/>
        <path d="M838 186c0-3.3 2.7-6 6-6h128c3.3 0 6 2.7 6 6v208c0 3.3-2.7 6-6 6H844c-3.3 0-6-2.7-6-6z" stroke="#666"
              stroke-width="2" fill="#fff"/>
        <use xlink:href="#w" transform="matrix(1,0,0,1,843,185) translate(31.025 14.4)"/>
        <path d="M603 489h-2v-3.03h2zm0-7.07h-2v-6.05h2zm0-10.1h-2v-6.04h2zm0-10.08h-2v-6.06h2zm0-10.1h-2v-6.05h2zm0-10.1h-2v-6.04h2zm-5.03-5.05h-6.06v-2h6.07zm-10.1 0h-6.05v-2h6.06zm-10.1 0h-6.04v-2h6.05zm-10.08 0h-6.07v-2h6.06zm-10.1 0h-6.06v-2h6.06zm-95.58 0h-1.32v-2h1.32zm-5.36 0h-6.05v-2h6.06zm-10.1 0h-6.04v-2h6.05zm-10.08 0h-6.06v-2h6.06zm-10.1 0h-6.05v-2h6.05zm-10.1 0h-6.04v-2h6.05zm-6.4-3.7h-2v-6.05h2zm0-10.08h-2v-6.06h2zm0-10.1h-2v-6.05h2zm0-10.1h-2v-3.02h2z"
              fill="#666"/>
        <path d="M603 490h-2v-1.03h2zM413.52 398.5h-9.27l4.64-14.26z" fill="#666"/>
        <path d="M414.9 399.5h-12.02l6-18.5zm-9.27-2h6.52l-3.26-10.03z" fill="#666"/>
        <use xlink:href="#x" transform="matrix(1,0,0,1,462.01944444444445,424.7) translate(0 14.4)"/>
        <path d="M512 491h162v102c-27.05-17.03-43.9-17.03-54.1-17.03-16.2 0-37.75 17.03-53.95 17.03-10.05 0-27.06 0-53.95-17.03z"
              stroke="#666" stroke-width="2" fill="#fff"/>
        <path d="M521 500h162v102c-27.05-17.03-43.9-17.03-54.1-17.03-16.2 0-37.75 17.03-53.95 17.03-10.05 0-27.06 0-53.95-17.03z"
              stroke="#666" stroke-width="2" fill="#fff"/>
        <path d="M530 509h162v102c-27.05-17.03-43.9-17.03-54.1-17.03-16.2 0-37.75 17.03-53.95 17.03-10.05 0-27.06 0-53.95-17.03z"
              stroke="#666" stroke-width="2" fill="#fff"/>
        <use xlink:href="#y" transform="matrix(1,0,0,1,535,514) translate(0.3876953125 42.896484375)"/>
        <path d="M590.4 351H502v-2h88.4zm155.33-.53h-89.4v-2h89.4z" fill="#666"/>
        <path d="M502.03 351H501v-2h1.03zM745.73 364.47h-2v-30h2z" fill="#666"/>
        <use xlink:href="#z" transform="matrix(1,0,0,1,590.3916666666665,338.9325590094639) translate(0 14.4)"/>
        <path d="M801.93 348.47h17.04v.06" stroke="#666" stroke-width="2" fill="none"/>
        <path d="M801.96 349.47h-1.03v-2h1.03z" fill="#666"/>
        <path d="M833.77 348.92l-14.4 4.26.25-9.27z" stroke="#666" stroke-width="2" fill="#fff"/>
        <path d="M580 336.33h160v2H578v-34.98h2zm0-54.58h-2V271h-58.5v-2H580z" fill="#666"/>
        <path d="M741 338.33h-1.03v-2H741z" fill="#666"/>
        <path d="M518.5 274.64L504.24 270l14.26-4.64z" fill="#fff"/>
        <path d="M519.5 276l-18.5-6 18.5-6zm-12.03-6l10.03 3.26v-6.52z" fill="#666"/>
        <use xlink:href="#A" transform="matrix(1,0,0,1,536.55,281.74951830443155) translate(0 14.4)"/>
        <path d="M626.37 254.62h118.36v2H624.37v-22h2zm-.82-66.8l.82 1.98V213h-2v-22.8l-.35-.85-.85-.35H502v-2h121.57z"
              fill="#666"/>
        <path d="M622.37 257.42l.35.85.85.35h121.16v2H623.17l-1.98-.82-.83-1.98v-23.2h2zm0-44.4h-2V193H502v-2h120.37zM502.03 189H501v-2h1.03z"
              fill="#666"/>
        <path d="M502.03 193H501v-2h1.03zM745.73 256.62h-1.02v-2h1.03zM745.73 260.62h-1.02v-2h1.03z" fill="#666"/>
        <use xlink:href="#B" transform="matrix(1,0,0,1,567.1666666666665,213.0099913964015) translate(0 14.4)"/>
        <use xlink:href="#C" transform="matrix(1,0,0,1,567.1666666666665,213.0099913964015) translate(68.85 14.4)"/>
        <path d="M180 172c0-6.63 5.37-12 12-12h296c6.63 0 12 5.37 12 12v36c0 6.63-5.37 12-12 12H192c-6.63 0-12-5.37-12-12z"
              stroke="#666" stroke-width="2" fill="#fff"/>
        <use xlink:href="#D" transform="matrix(1,0,0,1,185.0000000000001,165) translate(62.599999999999994 28.6)"/>
        <use xlink:href="#E" transform="matrix(1,0,0,1,185.0000000000001,165) translate(121.5 28.6)"/>
        <use xlink:href="#F" transform="matrix(1,0,0,1,185.0000000000001,165) translate(131.5 28.6)"/>
        <use xlink:href="#G" transform="matrix(1,0,0,1,185.0000000000001,165) translate(176.5 28.6)"/>
        <path d="M801.93 254.3h16.32l.28-.12M801.93 258.3h16.63" stroke="#666" stroke-width="2" fill="none"/>
        <path d="M801.96 255.3h-1.03v-2h1.03zM801.96 259.3h-1.03v-2h1.03z" fill="#666"/>
        <path d="M833.76 256.05l-14.18 4.87-.16-9.27z" stroke="#666" stroke-width="2" fill="#fff"/>
        <path d="M78 177.5h77.5V165l22.5 25-22.5 25v-12.5H78z" stroke="#666" stroke-width="2" fill="#666"/>
        <g>
            <use xlink:href="#H" transform="matrix(1,0,0,1,78,177.5) translate(12.549999999999997 16.1)"/>
        </g>
        <g>
            <path d="M857 375.33c-3.3 0-6-2.68-6-6V226c0-3.3 2.7-6 6-6h17.33c3.32 0 6 2.7 6 6v143.33c0 3.32-2.68 6-6 6z"
                  fill="#fff"/>
            <path d="M851.73 372.03l-.73-2.7v-3.07m0-4.1v-6.14m0-4.1v-6.13m0-4.1v-6.15m0-4.1v-6.14m0-4.1v-6.13m0-4.1v-6.14m0-4.1v-6.13m0-4.1v-6.14m0-4.1v-6.14m0-4.1v-6.14m0-4.1v-6.14m0-4.1v-6.14m0-4.1v-6.13m0-4.1V226l.73-2.7m2.57-2.57l2.7-.73h2.6m3.47 0h5.2m3.46 0h2.6l2.7.73m2.57 2.57l.73 2.7v3.07m0 4.1v6.14m0 4.1v6.15m0 4.1v6.14m0 4.08v6.14m0 4.1v6.14m0 4.1v6.14m0 4.1v6.14m0 4.1v6.14m0 4.1v6.13m0 4.1v6.15m0 4.1v6.14m0 4.1v6.13m0 4.1v6.14m0 4.1v3.06l-.73 2.7m-2.57 2.57l-2.7.73h-2.6m-3.46 0h-5.2m-3.47 0H857l-2.7-.73"
                  stroke="#666" stroke-width="2" fill="none"/>
        </g>
        <g>
            <use xlink:href="#I"
                 transform="matrix(6.123233995736766e-17,-1,1,6.123233995736766e-17,855.9999999999975,370.33333333333337) translate(50.025 14.4)"/>
        </g>
        <path d="M880.33 226c0-3.3 2.7-6 6-6h71c3.32 0 6 2.7 6 6v88c0 3.3-2.68 6-6 6h-71c-3.3 0-6-2.7-6-6z"
              fill="#fff"/>
        <path d="M883.63 220.73l2.7-.73h3.05m4.05 0h6.1m4.05 0h6.08m4.06 0h6.08m4.06 0h6.1m4.04 0h6.1m4.05 0h6.08m4.06 0h3.03l2.7.73m2.57 2.57l.73 2.7v2.93m0 3.9v5.88m0 3.92v5.87m0 3.9v5.87m0 3.9v5.87m0 3.92v5.86m0 3.9v5.88m0 3.9v5.88m0 3.9v5.88m0 3.9V314l-.73 2.7m-2.57 2.57l-2.7.73h-3.04m-4.07 0h-6.08m-4.06 0H934m-4.05 0h-6.1m-4.05 0h-6.08m-4.06 0h-6.08m-4.06 0h-6.1m-4.04 0h-3.05l-2.7-.73m-2.57-2.57l-.73-2.7v-2.93m0-3.9v-5.88m0-3.92v-5.87m0-3.9v-5.87m0-3.9v-5.87m0-3.92v-5.86m0-3.9v-5.88m0-3.9v-5.88m0-3.9v-5.88m0-3.9V226l.73-2.7"
              stroke="#666" stroke-width="2" fill="none"/>
        <g>
            <use xlink:href="#J" transform="matrix(1,0,0,1,885.3333333333308,225) translate(10.574999999999996 48.6)"/>
        </g>
        <path d="M880.33 326c0-3.3 2.7-6 6-6h71c3.32 0 6 2.7 6 6v43.33c0 3.32-2.68 6-6 6h-71c-3.3 0-6-2.68-6-6z"
              fill="#fff"/>
        <path d="M883.63 320.73l2.7-.73h3.05m4.05 0h6.1m4.05 0h6.08m4.06 0h6.08m4.06 0h6.1m4.04 0h6.1m4.05 0h6.08m4.06 0h3.03l2.7.73m2.57 2.57l.73 2.7v3.25m0 4.33v6.5m0 4.34v6.5m0 4.33v6.5m0 4.33v3.25l-.73 2.7m-2.57 2.57l-2.7.73h-3.04m-4.07 0h-6.08m-4.06 0H934m-4.05 0h-6.1m-4.05 0h-6.08m-4.06 0h-6.08m-4.06 0h-6.1m-4.04 0h-3.05l-2.7-.73m-2.57-2.57l-.73-2.7v-3.25m0-4.33v-6.5m0-4.33v-6.5m0-4.34v-6.5m0-4.33V326l.73-2.7"
              stroke="#666" stroke-width="2" fill="none"/>
        <g>
            <use xlink:href="#K" transform="matrix(1,0,0,1,885.3333333333308,325) translate(23.2 15.799999999999999)"/>
            <use xlink:href="#L" transform="matrix(1,0,0,1,885.3333333333308,325) translate(7.574999999999996 37.4)"/>
        </g>
        <path d="M883 598h-2v-15.2h2zm43.67-57H883v20.2h-2V539h43.67v-11.5h2z" fill="#666"/>
        <path d="M883 599h-2v-1.03h2zM930.3 526.5h-9.27l4.64-14.26z" fill="#666"/>
        <path d="M931.68 527.5h-12.03l6.02-18.5zm-9.27-2h6.53l-3.26-10.03z" fill="#666"/>
        <defs>
            <path fill="#666"
                  d="M30-248c87 1 191-15 191 75 0 78-77 80-158 76V0H30v-248zm33 125c57 0 124 11 124-50 0-59-68-47-124-48v98"
                  id="M"/>
            <path fill="#666" d="M114-163C36-179 61-72 57 0H25l-1-190h30c1 12-1 29 2 39 6-27 23-49 58-41v29" id="N"/>
            <path fill="#666"
                  d="M100-194c62-1 85 37 85 99 1 63-27 99-86 99S16-35 15-95c0-66 28-99 85-99zM99-20c44 1 53-31 53-75 0-43-8-75-51-75s-53 32-53 75 10 74 51 75"
                  id="O"/>
            <path fill="#666"
                  d="M210-169c-67 3-38 105-44 169h-31v-121c0-29-5-50-35-48C34-165 62-65 56 0H25l-1-190h30c1 10-1 24 2 32 10-44 99-50 107 0 11-21 27-35 58-36 85-2 47 119 55 194h-31v-121c0-29-5-49-35-48"
                  id="P"/>
            <path fill="#666"
                  d="M100-194c63 0 86 42 84 106H49c0 40 14 67 53 68 26 1 43-12 49-29l28 8c-11 28-37 45-77 45C44 4 14-33 15-96c1-61 26-98 85-98zm52 81c6-60-76-77-97-28-3 7-6 17-6 28h103"
                  id="Q"/>
            <path fill="#666" d="M59-47c-2 24 18 29 38 22v24C64 9 27 4 27-40v-127H5v-23h24l9-43h21v43h35v23H59v120"
                  id="R"/>
            <path fill="#666"
                  d="M106-169C34-169 62-67 57 0H25v-261h32l-1 103c12-21 28-36 61-36 89 0 53 116 60 194h-32v-121c2-32-8-49-39-48"
                  id="S"/>
            <path fill="#666"
                  d="M84 4C-5 8 30-112 23-190h32v120c0 31 7 50 39 49 72-2 45-101 50-169h31l1 190h-30c-1-10 1-25-2-33-11 22-28 36-60 37"
                  id="T"/>
            <path fill="#666"
                  d="M135-143c-3-34-86-38-87 0 15 53 115 12 119 90S17 21 10-45l28-5c4 36 97 45 98 0-10-56-113-15-118-90-4-57 82-63 122-42 12 7 21 19 24 35"
                  id="U"/>
            <g id="a">
                <use transform="matrix(0.05,0,0,0.05,0,0)" xlink:href="#M"/>
                <use transform="matrix(0.05,0,0,0.05,12,0)" xlink:href="#N"/>
                <use transform="matrix(0.05,0,0,0.05,17.95,0)" xlink:href="#O"/>
                <use transform="matrix(0.05,0,0,0.05,27.950000000000003,0)" xlink:href="#P"/>
                <use transform="matrix(0.05,0,0,0.05,42.9,0)" xlink:href="#Q"/>
                <use transform="matrix(0.05,0,0,0.05,52.900000000000006,0)" xlink:href="#R"/>
                <use transform="matrix(0.05,0,0,0.05,57.900000000000006,0)" xlink:href="#S"/>
                <use transform="matrix(0.05,0,0,0.05,67.9,0)" xlink:href="#Q"/>
                <use transform="matrix(0.05,0,0,0.05,77.9,0)" xlink:href="#T"/>
                <use transform="matrix(0.05,0,0,0.05,87.9,0)" xlink:href="#U"/>
            </g>
            <path fill="#666"
                  d="M185-189c-5-48-123-54-124 2 14 75 158 14 163 119 3 78-121 87-175 55-17-10-28-26-33-46l33-7c5 56 141 63 141-1 0-78-155-14-162-118-5-82 145-84 179-34 5 7 8 16 11 25"
                  id="V"/>
            <path fill="#666" d="M108 0H70L1-190h34L89-25l56-165h34" id="W"/>
            <g id="b">
                <use transform="matrix(0.05,0,0,0.05,0,0)" xlink:href="#V"/>
                <use transform="matrix(0.05,0,0,0.05,12,0)" xlink:href="#Q"/>
                <use transform="matrix(0.05,0,0,0.05,22,0)" xlink:href="#N"/>
                <use transform="matrix(0.05,0,0,0.05,27.950000000000003,0)" xlink:href="#W"/>
                <use transform="matrix(0.05,0,0,0.05,36.95,0)" xlink:href="#Q"/>
                <use transform="matrix(0.05,0,0,0.05,46.95,0)" xlink:href="#N"/>
            </g>
            <path fill="#666"
                  d="M212-179c-10-28-35-45-73-45-59 0-87 40-87 99 0 60 29 101 89 101 43 0 62-24 78-52l27 14C228-24 195 4 139 4 59 4 22-46 18-125c-6-104 99-153 187-111 19 9 31 26 39 46"
                  id="X"/>
            <path fill="#666"
                  d="M141-36C126-15 110 5 73 4 37 3 15-17 15-53c-1-64 63-63 125-63 3-35-9-54-41-54-24 1-41 7-42 31l-33-3c5-37 33-52 76-52 45 0 72 20 72 64v82c-1 20 7 32 28 27v20c-31 9-61-2-59-35zM48-53c0 20 12 33 32 33 41-3 63-29 60-74-43 2-92-5-92 41"
                  id="Y"/>
            <path fill="#666" d="M24 0v-261h32V0H24" id="Z"/>
            <g id="c">
                <use transform="matrix(0.05,0,0,0.05,0,0)" xlink:href="#X"/>
                <use transform="matrix(0.05,0,0,0.05,12.950000000000001,0)" xlink:href="#Y"/>
                <use transform="matrix(0.05,0,0,0.05,22.950000000000003,0)" xlink:href="#P"/>
                <use transform="matrix(0.05,0,0,0.05,37.900000000000006,0)" xlink:href="#Q"/>
                <use transform="matrix(0.05,0,0,0.05,47.900000000000006,0)" xlink:href="#Z"/>
            </g>
            <path fill="#666" d="M194 0L95-120 63-95V0H30v-248h33v124l119-124h40L117-140 236 0h-42" id="aa"/>
            <use transform="matrix(0.05,0,0,0.05,0,0)" xlink:href="#aa" id="d"/>
            <path fill="#666"
                  d="M140-251c81 0 123 46 123 126C263-46 219 4 140 4 59 4 17-45 17-125s42-126 123-126zm0 227c63 0 89-41 89-101s-29-99-89-99c-61 0-89 39-89 99S79-25 140-24"
                  id="ab"/>
            <path fill="#666"
                  d="M115-194c55 1 70 41 70 98S169 2 115 4C84 4 66-9 55-30l1 105H24l-1-265h31l2 30c10-21 28-34 59-34zm-8 174c40 0 45-34 45-75s-6-73-45-74c-42 0-51 32-51 76 0 43 10 73 51 73"
                  id="ac"/>
            <g id="e">
                <use transform="matrix(0.05,0,0,0.05,0,0)" xlink:href="#ab"/>
                <use transform="matrix(0.05,0,0,0.05,14,0)" xlink:href="#ac"/>
                <use transform="matrix(0.05,0,0,0.05,24,0)" xlink:href="#Q"/>
                <use transform="matrix(0.05,0,0,0.05,34,0)" xlink:href="#N"/>
                <use transform="matrix(0.05,0,0,0.05,39.95,0)" xlink:href="#Y"/>
                <use transform="matrix(0.05,0,0,0.05,49.95,0)" xlink:href="#R"/>
                <use transform="matrix(0.05,0,0,0.05,54.95,0)" xlink:href="#O"/>
                <use transform="matrix(0.05,0,0,0.05,64.95,0)" xlink:href="#N"/>
            </g>
            <path fill="#666" d="M195 0l-88-114-31 24V0H24v-248h52v113l112-113h60L142-143 257 0h-62" id="ad"/>
            <path fill="#666"
                  d="M85 4C-2 5 27-109 22-190h50c7 57-23 150 33 157 60-5 35-97 40-157h50l1 190h-47c-2-12 1-28-3-38-12 25-28 42-61 42"
                  id="ae"/>
            <path fill="#666"
                  d="M135-194c52 0 70 43 70 98 0 56-19 99-73 100-30 1-46-15-58-35L72 0H24l1-261h50v104c11-23 29-37 60-37zM114-30c31 0 40-27 40-66 0-37-7-63-39-63s-41 28-41 65c0 36 8 64 40 64"
                  id="af"/>
            <path fill="#666"
                  d="M185-48c-13 30-37 53-82 52C43 2 14-33 14-96s30-98 90-98c62 0 83 45 84 108H66c0 31 8 55 39 56 18 0 30-7 34-22zm-45-69c5-46-57-63-70-21-2 6-4 13-4 21h74"
                  id="ag"/>
            <path fill="#666" d="M135-150c-39-12-60 13-60 57V0H25l-1-190h47c2 13-1 29 3 40 6-28 27-53 61-41v41"
                  id="ah"/>
            <path fill="#666"
                  d="M135-194c87-1 58 113 63 194h-50c-7-57 23-157-34-157-59 0-34 97-39 157H25l-1-190h47c2 12-1 28 3 38 12-26 28-41 61-42"
                  id="ai"/>
            <path fill="#666" d="M115-3C79 11 28 4 28-45v-112H4v-33h27l15-45h31v45h36v33H77v99c-1 23 16 31 38 25v30"
                  id="aj"/>
            <path fill="#666"
                  d="M137-138c1-29-70-34-71-4 15 46 118 7 119 86 1 83-164 76-172 9l43-7c4 19 20 25 44 25 33 8 57-30 24-41C81-84 22-81 20-136c-2-80 154-74 161-7"
                  id="ak"/>
            <g id="f">
                <use transform="matrix(0.05,0,0,0.05,0,0)" xlink:href="#ad"/>
                <use transform="matrix(0.05,0,0,0.05,12.950000000000001,0)" xlink:href="#ae"/>
                <use transform="matrix(0.05,0,0,0.05,23.900000000000002,0)" xlink:href="#af"/>
                <use transform="matrix(0.05,0,0,0.05,34.85,0)" xlink:href="#ag"/>
                <use transform="matrix(0.05,0,0,0.05,44.85,0)" xlink:href="#ah"/>
                <use transform="matrix(0.05,0,0,0.05,51.85,0)" xlink:href="#ai"/>
                <use transform="matrix(0.05,0,0,0.05,62.800000000000004,0)" xlink:href="#ag"/>
                <use transform="matrix(0.05,0,0,0.05,72.80000000000001,0)" xlink:href="#aj"/>
                <use transform="matrix(0.05,0,0,0.05,78.75000000000001,0)" xlink:href="#ag"/>
                <use transform="matrix(0.05,0,0,0.05,88.75000000000001,0)" xlink:href="#ak"/>
            </g>
            <path fill="#666" d="M4 7l51-268h42L46 7H4" id="al"/>
            <use transform="matrix(0.05,0,0,0.05,0,0)" xlink:href="#al" id="g"/>
            <path fill="#666"
                  d="M140-251c80 0 125 45 125 126S219 4 139 4C58 4 15-44 15-125s44-126 125-126zm-1 214c52 0 73-35 73-88 0-50-21-86-72-86-52 0-73 35-73 86s22 88 72 88"
                  id="am"/>
            <path fill="#666"
                  d="M135-194c53 0 70 44 70 98 0 56-19 98-73 100-31 1-45-17-59-34 3 33 2 69 2 105H25l-1-265h48c2 10 0 23 3 31 11-24 29-35 60-35zM114-30c33 0 39-31 40-66 0-38-9-64-40-64-56 0-55 130 0 130"
                  id="an"/>
            <path fill="#666"
                  d="M169-182c-1-43-94-46-97-3 18 66 151 10 154 114 3 95-165 93-204 36-6-8-10-19-12-30l50-8c3 46 112 56 116 5-17-69-150-10-154-114-4-87 153-88 188-35 5 8 8 18 10 28"
                  id="ao"/>
            <path fill="#666"
                  d="M114-157C55-157 80-60 75 0H25v-261h50l-1 109c12-26 28-41 61-42 86-1 58 113 63 194h-50c-7-57 23-157-34-157"
                  id="ap"/>
            <path fill="#666" d="M25-224v-37h50v37H25zM25 0v-190h50V0H25" id="aq"/>
            <path fill="#666" d="M121-226c-27-7-43 5-38 36h38v33H83V0H34v-157H6v-33h28c-9-59 32-81 87-68v32" id="ar"/>
            <g id="h">
                <use transform="matrix(0.05,0,0,0.05,0,0)" xlink:href="#am"/>
                <use transform="matrix(0.05,0,0,0.05,14,0)" xlink:href="#an"/>
                <use transform="matrix(0.05,0,0,0.05,24.950000000000003,0)" xlink:href="#ag"/>
                <use transform="matrix(0.05,0,0,0.05,34.95,0)" xlink:href="#ai"/>
                <use transform="matrix(0.05,0,0,0.05,45.900000000000006,0)" xlink:href="#ao"/>
                <use transform="matrix(0.05,0,0,0.05,57.900000000000006,0)" xlink:href="#ap"/>
                <use transform="matrix(0.05,0,0,0.05,68.85000000000001,0)" xlink:href="#aq"/>
                <use transform="matrix(0.05,0,0,0.05,73.85000000000001,0)" xlink:href="#ar"/>
                <use transform="matrix(0.05,0,0,0.05,79.80000000000001,0)" xlink:href="#aj"/>
            </g>
            <path fill="#666"
                  d="M67-125c0 53 21 87 73 88 37 1 54-22 65-47l45 17C233-25 199 4 140 4 58 4 20-42 15-125 8-235 124-281 211-232c18 10 29 29 36 50l-46 12c-8-25-30-41-62-41-52 0-71 34-72 86"
                  id="as"/>
            <path fill="#666" d="M25 0v-261h50V0H25" id="at"/>
            <g id="i">
                <use transform="matrix(0.05,0,0,0.05,0,0)" xlink:href="#as"/>
                <use transform="matrix(0.05,0,0,0.05,12.950000000000001,0)" xlink:href="#at"/>
                <use transform="matrix(0.05,0,0,0.05,17.950000000000003,0)" xlink:href="#ae"/>
                <use transform="matrix(0.05,0,0,0.05,28.900000000000006,0)" xlink:href="#ak"/>
                <use transform="matrix(0.05,0,0,0.05,38.900000000000006,0)" xlink:href="#aj"/>
                <use transform="matrix(0.05,0,0,0.05,44.85000000000001,0)" xlink:href="#ag"/>
                <use transform="matrix(0.05,0,0,0.05,54.85,0)" xlink:href="#ah"/>
            </g>
            <path fill="#666"
                  d="M240 0l2-218c-23 76-54 145-80 218h-23L58-218 59 0H30v-248h44l77 211c21-75 51-140 76-211h43V0h-30"
                  id="au"/>
            <path fill="#666"
                  d="M117-194c89-4 53 116 60 194h-32v-121c0-31-8-49-39-48C34-167 62-67 57 0H25l-1-190h30c1 10-1 24 2 32 11-22 29-35 61-36"
                  id="av"/>
            <path fill="#666"
                  d="M177-190C167-65 218 103 67 71c-23-6-38-20-44-43l32-5c15 47 100 32 89-28v-30C133-14 115 1 83 1 29 1 15-40 15-95c0-56 16-97 71-98 29-1 48 16 59 35 1-10 0-23 2-32h30zM94-22c36 0 50-32 50-73 0-42-14-75-50-75-39 0-46 34-46 75s6 73 46 73"
                  id="aw"/>
            <g id="j">
                <use transform="matrix(0.05,0,0,0.05,0,0)" xlink:href="#au"/>
                <use transform="matrix(0.05,0,0,0.05,14.950000000000001,0)" xlink:href="#Y"/>
                <use transform="matrix(0.05,0,0,0.05,24.950000000000003,0)" xlink:href="#av"/>
                <use transform="matrix(0.05,0,0,0.05,34.95,0)" xlink:href="#Y"/>
                <use transform="matrix(0.05,0,0,0.05,44.95,0)" xlink:href="#aw"/>
                <use transform="matrix(0.05,0,0,0.05,54.95,0)" xlink:href="#Q"/>
                <use transform="matrix(0.05,0,0,0.05,64.95,0)" xlink:href="#U"/>
            </g>
            <path fill="#666" d="M33 0v-248h34V0H33" id="ax"/>
            <path fill="#666" d="M24-231v-30h32v30H24zM24 0v-190h32V0H24" id="ay"/>
            <g id="k">
                <use transform="matrix(0.05,0,0,0.05,0,0)" xlink:href="#ax"/>
                <use transform="matrix(0.05,0,0,0.05,5,0)" xlink:href="#av"/>
                <use transform="matrix(0.05,0,0,0.05,15,0)" xlink:href="#R"/>
                <use transform="matrix(0.05,0,0,0.05,20,0)" xlink:href="#Q"/>
                <use transform="matrix(0.05,0,0,0.05,30,0)" xlink:href="#aw"/>
                <use transform="matrix(0.05,0,0,0.05,40,0)" xlink:href="#N"/>
                <use transform="matrix(0.05,0,0,0.05,45.95,0)" xlink:href="#Y"/>
                <use transform="matrix(0.05,0,0,0.05,55.95,0)" xlink:href="#R"/>
                <use transform="matrix(0.05,0,0,0.05,60.95,0)" xlink:href="#ay"/>
                <use transform="matrix(0.05,0,0,0.05,64.9,0)" xlink:href="#O"/>
                <use transform="matrix(0.05,0,0,0.05,74.9,0)" xlink:href="#av"/>
            </g>
            <path fill="#666"
                  d="M85-194c31 0 48 13 60 33l-1-100h32l1 261h-30c-2-10 0-23-3-31C134-8 116 4 85 4 32 4 16-35 15-94c0-66 23-100 70-100zm9 24c-40 0-46 34-46 75 0 40 6 74 45 74 42 0 51-32 51-76 0-42-9-74-50-73"
                  id="az"/>
            <path fill="#666" d="M50-231l6-30h32l-6 30H50zM6 0l37-190h31L37 0H6" id="aA"/>
            <g id="l">
                <use transform="matrix(0.05,0,0,0.05,0,0)" xlink:href="#M"/>
                <use transform="matrix(0.05,0,0,0.05,12,0)" xlink:href="#O"/>
                <use transform="matrix(0.05,0,0,0.05,22,0)" xlink:href="#az"/>
                <use transform="matrix(0.034999999999999996,0,0,0.034999999999999996,32,2.5199999999999996)"
                     xlink:href="#aA"/>
            </g>
            <path fill="#999" d="M33 0v-38h34V0H33" id="aB"/>
            <g id="m">
                <use transform="matrix(0.05,0,0,0.05,0,0)" xlink:href="#aB"/>
                <use transform="matrix(0.05,0,0,0.05,5,0)" xlink:href="#aB"/>
                <use transform="matrix(0.05,0,0,0.05,10,0)" xlink:href="#aB"/>
            </g>
            <path fill="#999" d="M33 0v-248h34V0H33" id="aC"/>
            <path fill="#999"
                  d="M117-194c89-4 53 116 60 194h-32v-121c0-31-8-49-39-48C34-167 62-67 57 0H25l-1-190h30c1 10-1 24 2 32 11-22 29-35 61-36"
                  id="aD"/>
            <path fill="#999" d="M59-47c-2 24 18 29 38 22v24C64 9 27 4 27-40v-127H5v-23h24l9-43h21v43h35v23H59v120"
                  id="aE"/>
            <path fill="#999"
                  d="M100-194c63 0 86 42 84 106H49c0 40 14 67 53 68 26 1 43-12 49-29l28 8c-11 28-37 45-77 45C44 4 14-33 15-96c1-61 26-98 85-98zm52 81c6-60-76-77-97-28-3 7-6 17-6 28h103"
                  id="aF"/>
            <path fill="#999"
                  d="M177-190C167-65 218 103 67 71c-23-6-38-20-44-43l32-5c15 47 100 32 89-28v-30C133-14 115 1 83 1 29 1 15-40 15-95c0-56 16-97 71-98 29-1 48 16 59 35 1-10 0-23 2-32h30zM94-22c36 0 50-32 50-73 0-42-14-75-50-75-39 0-46 34-46 75s6 73 46 73"
                  id="aG"/>
            <path fill="#999" d="M114-163C36-179 61-72 57 0H25l-1-190h30c1 12-1 29 2 39 6-27 23-49 58-41v29" id="aH"/>
            <path fill="#999"
                  d="M141-36C126-15 110 5 73 4 37 3 15-17 15-53c-1-64 63-63 125-63 3-35-9-54-41-54-24 1-41 7-42 31l-33-3c5-37 33-52 76-52 45 0 72 20 72 64v82c-1 20 7 32 28 27v20c-31 9-61-2-59-35zM48-53c0 20 12 33 32 33 41-3 63-29 60-74-43 2-92-5-92 41"
                  id="aI"/>
            <path fill="#999" d="M24-231v-30h32v30H24zM24 0v-190h32V0H24" id="aJ"/>
            <path fill="#999"
                  d="M100-194c62-1 85 37 85 99 1 63-27 99-86 99S16-35 15-95c0-66 28-99 85-99zM99-20c44 1 53-31 53-75 0-43-8-75-51-75s-53 32-53 75 10 74 51 75"
                  id="aK"/>
            <g id="n">
                <use transform="matrix(0.05,0,0,0.05,0,0)" xlink:href="#aC"/>
                <use transform="matrix(0.05,0,0,0.05,5,0)" xlink:href="#aD"/>
                <use transform="matrix(0.05,0,0,0.05,15,0)" xlink:href="#aE"/>
                <use transform="matrix(0.05,0,0,0.05,20,0)" xlink:href="#aF"/>
                <use transform="matrix(0.05,0,0,0.05,30,0)" xlink:href="#aG"/>
                <use transform="matrix(0.05,0,0,0.05,40,0)" xlink:href="#aH"/>
                <use transform="matrix(0.05,0,0,0.05,45.95,0)" xlink:href="#aI"/>
                <use transform="matrix(0.05,0,0,0.05,55.95,0)" xlink:href="#aE"/>
                <use transform="matrix(0.05,0,0,0.05,60.95,0)" xlink:href="#aJ"/>
                <use transform="matrix(0.05,0,0,0.05,64.9,0)" xlink:href="#aK"/>
                <use transform="matrix(0.05,0,0,0.05,74.9,0)" xlink:href="#aD"/>
            </g>
            <path fill="#999"
                  d="M30-248c87 1 191-15 191 75 0 78-77 80-158 76V0H30v-248zm33 125c57 0 124 11 124-50 0-59-68-47-124-48v98"
                  id="aL"/>
            <path fill="#999"
                  d="M85-194c31 0 48 13 60 33l-1-100h32l1 261h-30c-2-10 0-23-3-31C134-8 116 4 85 4 32 4 16-35 15-94c0-66 23-100 70-100zm9 24c-40 0-46 34-46 75 0 40 6 74 45 74 42 0 51-32 51-76 0-42-9-74-50-73"
                  id="aM"/>
            <path fill="#999" d="M173 0L80-213 41 0H11l48-248h37l94 214 40-214h30L212 0h-39" id="aN"/>
            <g id="o">
                <use transform="matrix(0.05,0,0,0.05,0,0)" xlink:href="#aL"/>
                <use transform="matrix(0.05,0,0,0.05,12,0)" xlink:href="#aK"/>
                <use transform="matrix(0.05,0,0,0.05,22,0)" xlink:href="#aM"/>
                <use transform="matrix(0.034567901234567905,0,0,0.034567901234567905,32,2.488888888888889)"
                     xlink:href="#aN"/>
            </g>
            <path fill="#666" d="M914 0L548-499l-132 98V0H236v-1484h180v927l475-525h211L663-617 1125 0H914" id="aO"/>
            <path fill="#666"
                  d="M528 20c-247 0-343-132-343-381v-721h180v686c-4 177 45 284 224 277 194-8 279-136 279-336v-627h181c3 360-6 732 6 1082H885c-4-54-7-126-8-185h-3C809-64 714 20 528 20"
                  id="aP"/>
            <path fill="#666"
                  d="M365-904c58-129 161-200 334-200 130 0 228 46 293 138s98 233 98 420c0 189-34 331-102 425S824 20 698 20c-170 0-275-64-336-184 0 55-3 116-9 164H179c5-68 6-147 6-223v-1261h180c-2 193 4 394-4 580h4zm283 791c221 0 256-197 256-427 0-229-34-425-254-425-236 0-285 195-285 441 0 237 53 411 283 411"
                  id="aQ"/>
            <path fill="#666"
                  d="M617-1102c355 0 481 238 477 599H322c5 222 84 388 301 388 144 0 244-59 284-166l158 45C1002-72 854 20 623 20c-342 0-490-220-490-568 0-346 151-554 484-554zm291 461c-18-192-90-328-289-328-194 0-287 128-295 328h584"
                  id="aR"/>
            <path fill="#666" d="M334-464v-160h560v160H334" id="aS"/>
            <path fill="#666"
                  d="M839-1102c70 0 148 7 206 17v167c-112-18-268-36-363 15-129 69-208 203-208 395V0H294c-10-367 32-789-52-1082h171c21 75 41 161 48 250h5c67-152 152-270 373-270"
                  id="aT"/>
            <path fill="#666"
                  d="M1000-272c3 95 12 159 101 161 21 0 41-3 59-7V-6c-44 10-86 16-139 16-141 2-191-84-197-217h-6C748-76 648 20 446 20c-207 0-318-120-318-322 0-266 194-348 454-354l236-4c12-191-40-305-222-305-140 0-220 47-232 172l-188-17c33-204 181-292 423-292 255 0 401 118 401 364v466zm-683-27c0 109 63 184 175 182 166-3 259-96 306-217 24-65 20-120 20-200-232 7-501-28-501 235"
                  id="aU"/>
            <path fill="#666"
                  d="M631 20c-350 0-501-215-501-562 0-355 162-560 502-560 250 0 399 118 446 323l-192 14c-23-124-109-196-262-196-242 0-305 171-305 415 1 245 61 427 304 427 151 0 248-77 267-215l190 12C1039-107 883 20 631 20"
                  id="aV"/>
            <path fill="#666"
                  d="M698-1104c312 3 392 244 392 558 0 315-82 566-392 566-169 0-277-65-331-184h-5c8 188 2 394 4 589H185V-858c0-76-1-156-6-224h175c6 52 9 120 10 178h4c58-122 150-202 330-200zm-49 991c225 0 255-203 255-433 0-225-32-419-253-419-236 0-285 192-285 441 0 237 53 411 283 411"
                  id="aW"/>
            <path fill="#666"
                  d="M615-1102c343 0 484 203 482 560-1 347-147 562-488 562-336 0-475-219-479-562-4-349 156-560 485-560zm-8 989c240 0 301-180 301-429 0-245-55-427-290-427-236 0-299 181-299 427 0 243 61 429 288 429"
                  id="aX"/>
            <path fill="#666" d="M932 0L611-444 288 0H94l415-556-397-526h199l300 421 298-421h201L713-558 1133 0H932"
                  id="aY"/>
            <path fill="#666"
                  d="M168 279c222 39 310-114 368-290L66-1082h192c120 299 249 590 362 896 115-301 235-597 351-896h190L705 0c-65 164-130 320-275 396-67 36-177 35-262 18V279"
                  id="aZ"/>
            <g id="p">
                <use transform="matrix(0.0087890625,0,0,0.0087890625,0,0)" xlink:href="#aO"/>
                <use transform="matrix(0.0087890625,0,0,0.0087890625,10.8017578125,0)" xlink:href="#aP"/>
                <use transform="matrix(0.0087890625,0,0,0.0087890625,21.603515625,0)" xlink:href="#aQ"/>
                <use transform="matrix(0.0087890625,0,0,0.0087890625,32.4052734375,0)" xlink:href="#aR"/>
                <use transform="matrix(0.0087890625,0,0,0.0087890625,43.20703125,0)" xlink:href="#aS"/>
                <use transform="matrix(0.0087890625,0,0,0.0087890625,54.0087890625,0)" xlink:href="#aT"/>
                <use transform="matrix(0.0087890625,0,0,0.0087890625,64.810546875,0)" xlink:href="#aQ"/>
                <use transform="matrix(0.0087890625,0,0,0.0087890625,75.6123046875,0)" xlink:href="#aU"/>
                <use transform="matrix(0.0087890625,0,0,0.0087890625,86.4140625,0)" xlink:href="#aV"/>
                <use transform="matrix(0.0087890625,0,0,0.0087890625,97.2158203125,0)" xlink:href="#aS"/>
                <use transform="matrix(0.0087890625,0,0,0.0087890625,108.017578125,0)" xlink:href="#aW"/>
                <use transform="matrix(0.0087890625,0,0,0.0087890625,118.8193359375,0)" xlink:href="#aT"/>
                <use transform="matrix(0.0087890625,0,0,0.0087890625,129.62109375,0)" xlink:href="#aX"/>
                <use transform="matrix(0.0087890625,0,0,0.0087890625,140.4228515625,0)" xlink:href="#aY"/>
                <use transform="matrix(0.0087890625,0,0,0.0087890625,151.224609375,0)" xlink:href="#aZ"/>
            </g>
            <path fill="#666" d="M16-82v-28h88v28H16" id="ba"/>
            <path fill="#666"
                  d="M96-169c-40 0-48 33-48 73s9 75 48 75c24 0 41-14 43-38l32 2c-6 37-31 61-74 61-59 0-76-41-82-99-10-93 101-131 147-64 4 7 5 14 7 22l-32 3c-4-21-16-35-41-35"
                  id="bb"/>
            <g id="q">
                <use transform="matrix(0.05,0,0,0.05,0,0)" xlink:href="#U"/>
                <use transform="matrix(0.05,0,0,0.05,9,0)" xlink:href="#ay"/>
                <use transform="matrix(0.05,0,0,0.05,12.949999999999998,0)" xlink:href="#az"/>
                <use transform="matrix(0.05,0,0,0.05,22.95,0)" xlink:href="#Q"/>
                <use transform="matrix(0.05,0,0,0.05,32.95,0)" xlink:href="#ba"/>
                <use transform="matrix(0.05,0,0,0.05,38.900000000000006,0)" xlink:href="#bb"/>
                <use transform="matrix(0.05,0,0,0.05,47.900000000000006,0)" xlink:href="#Y"/>
                <use transform="matrix(0.05,0,0,0.05,57.900000000000006,0)" xlink:href="#N"/>
            </g>
            <g id="r">
                <use transform="matrix(0.05,0,0,0.05,0,0)" xlink:href="#X"/>
                <use transform="matrix(0.05,0,0,0.05,12.950000000000001,0)" xlink:href="#N"/>
                <use transform="matrix(0.05,0,0,0.05,18.900000000000002,0)" xlink:href="#Q"/>
                <use transform="matrix(0.05,0,0,0.05,28.900000000000002,0)" xlink:href="#Y"/>
                <use transform="matrix(0.05,0,0,0.05,38.900000000000006,0)" xlink:href="#R"/>
                <use transform="matrix(0.05,0,0,0.05,43.900000000000006,0)" xlink:href="#Q"/>
                <use transform="matrix(0.05,0,0,0.05,53.900000000000006,0)" xlink:href="#U"/>
            </g>
            <path fill="#666" d="M205 0l-28-72H64L36 0H1l101-248h38L239 0h-34zm-38-99l-47-123c-12 45-31 82-46 123h93"
                  id="bc"/>
            <g id="s">
                <use transform="matrix(0.05,0,0,0.05,0,0)" xlink:href="#bc"/>
                <use transform="matrix(0.05,0,0,0.05,12,0)" xlink:href="#M"/>
                <use transform="matrix(0.05,0,0,0.05,24,0)" xlink:href="#ax"/>
            </g>
            <g id="t">
                <use transform="matrix(0.05,0,0,0.05,0,0)" xlink:href="#V"/>
                <use transform="matrix(0.05,0,0,0.05,12,0)" xlink:href="#Q"/>
                <use transform="matrix(0.05,0,0,0.05,22,0)" xlink:href="#N"/>
                <use transform="matrix(0.05,0,0,0.05,27.950000000000003,0)" xlink:href="#W"/>
                <use transform="matrix(0.05,0,0,0.05,36.95,0)" xlink:href="#Q"/>
                <use transform="matrix(0.05,0,0,0.05,46.95,0)" xlink:href="#N"/>
            </g>
            <path fill="#666" d="M87 75C49 33 22-17 22-94c0-76 28-126 65-167h31c-38 41-64 92-64 168S80 34 118 75H87"
                  id="bd"/>
            <path fill="#666"
                  d="M233-177c-1 41-23 64-60 70L243 0h-38l-65-103H63V0H30v-248c88 3 205-21 203 71zM63-129c60-2 137 13 137-47 0-61-80-42-137-45v92"
                  id="be"/>
            <path fill="#666"
                  d="M160-131c35 5 61 23 61 61C221 17 115-2 30 0v-248c76 3 177-17 177 60 0 33-19 50-47 57zm-97-11c50-1 110 9 110-42 0-47-63-36-110-37v79zm0 115c55-2 124 14 124-45 0-56-70-42-124-44v89"
                  id="bf"/>
            <path fill="#666" d="M33-261c38 41 65 92 65 168S71 34 33 75H2C39 34 66-17 66-93S39-220 2-261h31" id="bg"/>
            <g id="u">
                <use transform="matrix(0.05,0,0,0.05,0,0)" xlink:href="#bd"/>
                <use transform="matrix(0.05,0,0,0.05,5.95,0)" xlink:href="#be"/>
                <use transform="matrix(0.05,0,0,0.05,18.900000000000002,0)" xlink:href="#bf"/>
                <use transform="matrix(0.05,0,0,0.05,30.900000000000002,0)" xlink:href="#bc"/>
                <use transform="matrix(0.05,0,0,0.05,42.900000000000006,0)" xlink:href="#X"/>
                <use transform="matrix(0.05,0,0,0.05,55.85,0)" xlink:href="#bg"/>
            </g>
            <path fill="#666" d="M266 0h-40l-56-210L115 0H75L2-248h35L96-30l15-64 43-154h32l59 218 59-218h35" id="bh"/>
            <g id="v">
                <use transform="matrix(0.05,0,0,0.05,0,0)" xlink:href="#bh"/>
                <use transform="matrix(0.05,0,0,0.05,16.3,0)" xlink:href="#Y"/>
                <use transform="matrix(0.05,0,0,0.05,26.3,0)" xlink:href="#R"/>
                <use transform="matrix(0.05,0,0,0.05,31.3,0)" xlink:href="#bb"/>
                <use transform="matrix(0.05,0,0,0.05,40.3,0)" xlink:href="#S"/>
                <use transform="matrix(0.05,0,0,0.05,50.3,0)" xlink:href="#Q"/>
                <use transform="matrix(0.05,0,0,0.05,60.29999999999999,0)" xlink:href="#U"/>
            </g>
            <path fill="#666"
                  d="M140-251c81 0 123 46 123 126C263-53 228-8 163 1c7 30 30 48 69 40v23c-55 16-95-15-103-61C56-3 17-48 17-125c0-80 42-126 123-126zm0 227c63 0 89-41 89-101s-29-99-89-99c-61 0-89 39-89 99S79-25 140-24"
                  id="bi"/>
            <path fill="#666" d="M143 0L79-87 56-68V0H24v-261h32v163l83-92h37l-77 82L181 0h-38" id="bj"/>
            <g id="w">
                <use transform="matrix(0.05,0,0,0.05,0,0)" xlink:href="#bi"/>
                <use transform="matrix(0.05,0,0,0.05,14,0)" xlink:href="#T"/>
                <use transform="matrix(0.05,0,0,0.05,24,0)" xlink:href="#Y"/>
                <use transform="matrix(0.05,0,0,0.05,34,0)" xlink:href="#N"/>
                <use transform="matrix(0.05,0,0,0.05,39.95,0)" xlink:href="#bj"/>
                <use transform="matrix(0.05,0,0,0.05,48.95,0)" xlink:href="#T"/>
                <use transform="matrix(0.05,0,0,0.05,58.95,0)" xlink:href="#U"/>
            </g>
            <path fill="#666" d="M101-234c-31-9-42 10-38 44h38v23H63V0H32v-167H5v-23h27c-7-52 17-82 69-68v24" id="bk"/>
            <g id="x">
                <use transform="matrix(0.05,0,0,0.05,0,0)" xlink:href="#X"/>
                <use transform="matrix(0.05,0,0,0.05,12.950000000000001,0)" xlink:href="#O"/>
                <use transform="matrix(0.05,0,0,0.05,22.950000000000003,0)" xlink:href="#av"/>
                <use transform="matrix(0.05,0,0,0.05,32.95,0)" xlink:href="#bk"/>
                <use transform="matrix(0.05,0,0,0.05,37.95,0)" xlink:href="#ay"/>
                <use transform="matrix(0.05,0,0,0.05,41.900000000000006,0)" xlink:href="#aw"/>
                <use transform="matrix(0.05,0,0,0.05,51.900000000000006,0)" xlink:href="#T"/>
                <use transform="matrix(0.05,0,0,0.05,61.900000000000006,0)" xlink:href="#N"/>
                <use transform="matrix(0.05,0,0,0.05,67.85000000000001,0)" xlink:href="#Q"/>
                <use transform="matrix(0.05,0,0,0.05,77.85000000000001,0)" xlink:href="#U"/>
            </g>
            <path fill="#666"
                  d="M614-1226c-167 1-283 53-283 213 0 183 186 193 334 234 230 63 463 120 463 409 0 286-219 387-518 390C309 23 131-98 79-338l185-37c34 165 149 248 351 246 184-2 324-58 324-238 0-203-207-221-372-266-210-57-422-111-422-377 0-267 201-356 470-360 279-5 430 101 480 324l-188 33c-28-141-121-215-293-213"
                  id="bl"/>
            <path fill="#666"
                  d="M617-1102c355 0 481 238 477 599H322c5 222 84 388 301 388 144 0 244-59 284-166l158 45C1002-72 854 20 623 20c-342 0-490-220-490-568 0-346 151-554 484-554zm291 461c-18-192-90-328-289-328-194 0-287 128-295 328h584"
                  id="bm"/>
            <path fill="#666"
                  d="M839-1102c70 0 148 7 206 17v167c-112-18-268-36-363 15-129 69-208 203-208 395V0H294c-10-367 32-789-52-1082h171c21 75 41 161 48 250h5c67-152 152-270 373-270"
                  id="bn"/>
            <path fill="#666"
                  d="M715 0H502L69-1082h202c94 253 197 500 285 758 19 57 36 126 52 183 96-335 234-626 350-941h201"
                  id="bo"/>
            <path fill="#666" d="M745-142h380V0H143v-142h422v-798H246v-142h499v940zM545-1292v-192h200v192H545" id="bp"/>
            <path fill="#666"
                  d="M631 20c-350 0-501-215-501-562 0-355 162-560 502-560 250 0 399 118 446 323l-192 14c-23-124-109-196-262-196-242 0-305 171-305 415 1 245 61 427 304 427 151 0 248-77 267-215l190 12C1039-107 883 20 631 20"
                  id="bq"/>
            <path fill="#666"
                  d="M285-1169c8 382 2 780 4 1169H129v-1349h237c86 239 188 461 253 720 69-258 169-481 255-720h225V0H937c2-390-5-788 6-1169-75 255-170 488-259 729H547c-90-240-185-475-262-729"
                  id="br"/>
            <path fill="#666"
                  d="M615-1102c343 0 484 203 482 560-1 347-147 562-488 562-336 0-475-219-479-562-4-349 156-560 485-560zm-8 989c240 0 301-180 301-429 0-245-55-427-290-427-236 0-299 181-299 427 0 243 61 429 288 429"
                  id="bs"/>
            <path fill="#666"
                  d="M706-1102c241 0 344 136 343 381V0H868v-695c1-168-57-273-220-268-190 6-283 138-283 336V0H185c-3-360 6-732-6-1082h170c4 54 7 126 8 185h3c63-121 164-204 346-205"
                  id="bt"/>
            <path fill="#666"
                  d="M682 16c-209 0-323-80-324-285v-671H190v-142h170l58-282h120v282h432v142H538v652c2 114 60 155 182 155 106 0 209-16 297-34v137C921-4 806 16 682 16"
                  id="bu"/>
            <g id="y">
                <use transform="matrix(0.0087890625,0,0,0.0087890625,0,0)" xlink:href="#bl"/>
                <use transform="matrix(0.0087890625,0,0,0.0087890625,10.8017578125,0)" xlink:href="#bm"/>
                <use transform="matrix(0.0087890625,0,0,0.0087890625,21.603515625,0)" xlink:href="#bn"/>
                <use transform="matrix(0.0087890625,0,0,0.0087890625,32.4052734375,0)" xlink:href="#bo"/>
                <use transform="matrix(0.0087890625,0,0,0.0087890625,43.20703125,0)" xlink:href="#bp"/>
                <use transform="matrix(0.0087890625,0,0,0.0087890625,54.0087890625,0)" xlink:href="#bq"/>
                <use transform="matrix(0.0087890625,0,0,0.0087890625,64.810546875,0)" xlink:href="#bm"/>
                <use transform="matrix(0.0087890625,0,0,0.0087890625,75.6123046875,0)" xlink:href="#br"/>
                <use transform="matrix(0.0087890625,0,0,0.0087890625,86.4140625,0)" xlink:href="#bs"/>
                <use transform="matrix(0.0087890625,0,0,0.0087890625,97.2158203125,0)" xlink:href="#bt"/>
                <use transform="matrix(0.0087890625,0,0,0.0087890625,108.017578125,0)" xlink:href="#bp"/>
                <use transform="matrix(0.0087890625,0,0,0.0087890625,118.8193359375,0)" xlink:href="#bu"/>
                <use transform="matrix(0.0087890625,0,0,0.0087890625,129.62109375,0)" xlink:href="#bs"/>
                <use transform="matrix(0.0087890625,0,0,0.0087890625,140.4228515625,0)" xlink:href="#bn"/>
            </g>
            <g id="z">
                <use transform="matrix(0.05,0,0,0.05,0,0)" xlink:href="#V"/>
                <use transform="matrix(0.05,0,0,0.05,12,0)" xlink:href="#bb"/>
                <use transform="matrix(0.05,0,0,0.05,21,0)" xlink:href="#N"/>
                <use transform="matrix(0.05,0,0,0.05,26.950000000000003,0)" xlink:href="#Y"/>
                <use transform="matrix(0.05,0,0,0.05,36.95,0)" xlink:href="#ac"/>
                <use transform="matrix(0.05,0,0,0.05,46.95,0)" xlink:href="#Q"/>
                <use transform="matrix(0.05,0,0,0.05,56.95,0)" xlink:href="#U"/>
            </g>
            <path fill="#666" d="M9 0v-24l116-142H16v-24h144v24L44-24h123V0H9" id="bv"/>
            <g id="A">
                <use transform="matrix(0.05,0,0,0.05,0,0)" xlink:href="#bc"/>
                <use transform="matrix(0.05,0,0,0.05,12,0)" xlink:href="#T"/>
                <use transform="matrix(0.05,0,0,0.05,22,0)" xlink:href="#R"/>
                <use transform="matrix(0.05,0,0,0.05,27,0)" xlink:href="#S"/>
                <use transform="matrix(0.05,0,0,0.05,37,0)" xlink:href="#O"/>
                <use transform="matrix(0.05,0,0,0.05,47,0)" xlink:href="#N"/>
                <use transform="matrix(0.05,0,0,0.05,52.95,0)" xlink:href="#ay"/>
                <use transform="matrix(0.05,0,0,0.05,56.900000000000006,0)" xlink:href="#bv"/>
                <use transform="matrix(0.05,0,0,0.05,65.9,0)" xlink:href="#Q"/>
                <use transform="matrix(0.05,0,0,0.05,75.9,0)" xlink:href="#U"/>
            </g>
            <path fill="#666" d="M197 0v-115H63V0H30v-248h33v105h134v-105h34V0h-34" id="bw"/>
            <path fill="#666" d="M127-220V0H93v-220H8v-28h204v28h-85" id="bx"/>
            <path fill="#666" d="M0 4l72-265h28L28 4H0" id="by"/>
            <g id="B">
                <use transform="matrix(0.05,0,0,0.05,0,0)" xlink:href="#bw"/>
                <use transform="matrix(0.05,0,0,0.05,12.950000000000001,0)" xlink:href="#bx"/>
                <use transform="matrix(0.05,0,0,0.05,23.900000000000002,0)" xlink:href="#bx"/>
                <use transform="matrix(0.05,0,0,0.05,34.85,0)" xlink:href="#M"/>
                <use transform="matrix(0.05,0,0,0.05,46.85,0)" xlink:href="#by"/>
                <use transform="matrix(0.05,0,0,0.05,51.85,0)" xlink:href="#V"/>
            </g>
            <g id="C">
                <use transform="matrix(0.05,0,0,0.05,0,0)" xlink:href="#R"/>
                <use transform="matrix(0.05,0,0,0.05,5,0)" xlink:href="#N"/>
                <use transform="matrix(0.05,0,0,0.05,10.95,0)" xlink:href="#Y"/>
                <use transform="matrix(0.05,0,0,0.05,20.95,0)" xlink:href="#bk"/>
                <use transform="matrix(0.05,0,0,0.05,25.599999999999998,0)" xlink:href="#bk"/>
                <use transform="matrix(0.05,0,0,0.05,30.599999999999994,0)" xlink:href="#ay"/>
                <use transform="matrix(0.05,0,0,0.05,34.55,0)" xlink:href="#bb"/>
            </g>
            <g id="D">
                <use transform="matrix(0.05,0,0,0.05,0,0)" xlink:href="#be"/>
                <use transform="matrix(0.05,0,0,0.05,12.950000000000001,0)" xlink:href="#O"/>
                <use transform="matrix(0.05,0,0,0.05,22.950000000000003,0)" xlink:href="#T"/>
                <use transform="matrix(0.05,0,0,0.05,32.95,0)" xlink:href="#R"/>
                <use transform="matrix(0.05,0,0,0.05,37.95,0)" xlink:href="#Q"/>
                <use transform="matrix(0.05,0,0,0.05,47.95,0)" xlink:href="#N"/>
            </g>
            <use transform="matrix(0.05,0,0,0.05,0,0)" xlink:href="#by" id="E"/>
            <path fill="#666" d="M30 0v-248h33v221h125V0H30" id="bz"/>
            <g id="F">
                <use transform="matrix(0.05,0,0,0.05,0,0)" xlink:href="#bz"/>
                <use transform="matrix(0.05,0,0,0.05,10,0)" xlink:href="#O"/>
                <use transform="matrix(0.05,0,0,0.05,20,0)" xlink:href="#Y"/>
                <use transform="matrix(0.05,0,0,0.05,30,0)" xlink:href="#az"/>
            </g>
            <g id="G">
                <use transform="matrix(0.05,0,0,0.05,0,0)" xlink:href="#bf"/>
                <use transform="matrix(0.05,0,0,0.05,12,0)" xlink:href="#Y"/>
                <use transform="matrix(0.05,0,0,0.05,22,0)" xlink:href="#Z"/>
                <use transform="matrix(0.05,0,0,0.05,25.950000000000003,0)" xlink:href="#Y"/>
                <use transform="matrix(0.05,0,0,0.05,35.95,0)" xlink:href="#av"/>
                <use transform="matrix(0.05,0,0,0.05,45.95,0)" xlink:href="#bb"/>
                <use transform="matrix(0.05,0,0,0.05,54.95,0)" xlink:href="#Q"/>
                <use transform="matrix(0.05,0,0,0.05,64.95,0)" xlink:href="#N"/>
            </g>
            <path fill="#fff" d="M24 0v-248h52V0H24" id="bA"/>
            <path fill="#fff"
                  d="M135-194c87-1 58 113 63 194h-50c-7-57 23-157-34-157-59 0-34 97-39 157H25l-1-190h47c2 12-1 28 3 38 12-26 28-41 61-42"
                  id="bB"/>
            <path fill="#fff"
                  d="M195-6C206 82 75 100 31 46c-4-6-6-13-8-21l49-6c3 16 16 24 34 25 40 0 42-37 40-79-11 22-30 35-61 35-53 0-70-43-70-97 0-56 18-96 73-97 30 0 46 14 59 34l2-30h47zm-90-29c32 0 41-27 41-63 0-35-9-62-40-62-32 0-39 29-40 63 0 36 9 62 39 62"
                  id="bC"/>
            <path fill="#fff" d="M135-150c-39-12-60 13-60 57V0H25l-1-190h47c2 13-1 29 3 40 6-28 27-53 61-41v41"
                  id="bD"/>
            <path fill="#fff"
                  d="M185-48c-13 30-37 53-82 52C43 2 14-33 14-96s30-98 90-98c62 0 83 45 84 108H66c0 31 8 55 39 56 18 0 30-7 34-22zm-45-69c5-46-57-63-70-21-2 6-4 13-4 21h74"
                  id="bE"/>
            <path fill="#fff"
                  d="M137-138c1-29-70-34-71-4 15 46 118 7 119 86 1 83-164 76-172 9l43-7c4 19 20 25 44 25 33 8 57-30 24-41C81-84 22-81 20-136c-2-80 154-74 161-7"
                  id="bF"/>
            <g id="H">
                <use transform="matrix(0.05,0,0,0.05,0,0)" xlink:href="#bA"/>
                <use transform="matrix(0.05,0,0,0.05,5,0)" xlink:href="#bB"/>
                <use transform="matrix(0.05,0,0,0.05,15.950000000000001,0)" xlink:href="#bC"/>
                <use transform="matrix(0.05,0,0,0.05,26.900000000000002,0)" xlink:href="#bD"/>
                <use transform="matrix(0.05,0,0,0.05,33.900000000000006,0)" xlink:href="#bE"/>
                <use transform="matrix(0.05,0,0,0.05,43.900000000000006,0)" xlink:href="#bF"/>
                <use transform="matrix(0.05,0,0,0.05,53.900000000000006,0)" xlink:href="#bF"/>
            </g>
            <path fill="#666" d="M137 0h-34L2-248h35l83 218 83-218h36" id="bG"/>
            <path fill="#666" d="M33 0v-38h34V0H33" id="bH"/>
            <path fill="#666" d="M141 0L90-78 38 0H4l68-98-65-92h35l48 74 47-74h35l-64 92 68 98h-35" id="bI"/>
            <g id="I">
                <use transform="matrix(0.05,0,0,0.05,0,0)" xlink:href="#bG"/>
                <use transform="matrix(0.05,0,0,0.05,11,0)" xlink:href="#Q"/>
                <use transform="matrix(0.05,0,0,0.05,21,0)" xlink:href="#N"/>
                <use transform="matrix(0.05,0,0,0.05,26.950000000000003,0)" xlink:href="#R"/>
                <use transform="matrix(0.05,0,0,0.05,31.950000000000003,0)" xlink:href="#bH"/>
                <use transform="matrix(0.05,0,0,0.05,36.95,0)" xlink:href="#bI"/>
            </g>
            <g id="J">
                <use transform="matrix(0.05,0,0,0.05,0,0)" xlink:href="#X"/>
                <use transform="matrix(0.05,0,0,0.05,12.950000000000001,0)" xlink:href="#Y"/>
                <use transform="matrix(0.05,0,0,0.05,22.950000000000003,0)" xlink:href="#P"/>
                <use transform="matrix(0.05,0,0,0.05,37.900000000000006,0)" xlink:href="#Q"/>
                <use transform="matrix(0.05,0,0,0.05,47.900000000000006,0)" xlink:href="#Z"/>
            </g>
            <g id="K">
                <use transform="matrix(0.05,0,0,0.05,0,0)" xlink:href="#au"/>
                <use transform="matrix(0.05,0,0,0.05,14.950000000000001,0)" xlink:href="#M"/>
            </g>
            <g id="L">
                <use transform="matrix(0.05,0,0,0.05,0,0)" xlink:href="#au"/>
                <use transform="matrix(0.05,0,0,0.05,14.950000000000001,0)" xlink:href="#Q"/>
                <use transform="matrix(0.05,0,0,0.05,24.950000000000003,0)" xlink:href="#R"/>
                <use transform="matrix(0.05,0,0,0.05,29.950000000000003,0)" xlink:href="#N"/>
                <use transform="matrix(0.05,0,0,0.05,35.900000000000006,0)" xlink:href="#ay"/>
                <use transform="matrix(0.05,0,0,0.05,39.85000000000001,0)" xlink:href="#bb"/>
                <use transform="matrix(0.05,0,0,0.05,48.85000000000001,0)" xlink:href="#U"/>
            </g>
        </defs>
    </g>
</svg>